<svg xmlns="http://www.w3.org/2000/svg" viewBox="0 0 640 420">
  <defs>
    <style>
      .cls-1 {
        fill: #fff5ff;
      }

      .cls-2 {
        fill: #10162f;
      }

      .cls-3 {
        fill: #fff9e4;
      }

      .cls-4 {
        fill: #fff4ff;
      }
    </style>
  </defs>
  <g id="BG">
    <g>
      <rect class="cls-1" x="0.75" y="0.11" width="639" height="419"/>
      <path class="cls-2" d="M639.25.61v418H1.25V.61h638m1-1H.25v420h640V-.39Z"/>
    </g>
  </g>
  <g id="Layer_3" data-name="Layer 3">
    <g>
      <g>
        <path class="cls-2" d="M152.32,329.5a4.58,4.58,0,0,1-4.57-4.57V303.07a4.58,4.58,0,0,1,4.57-4.57h76.86a5.58,5.58,0,0,1,5.57,5.57v20.86a4.58,4.58,0,0,1-4.57,4.57Z"/>
        <path class="cls-2" d="M229.18,299a5.07,5.07,0,0,1,5.07,5.07v20.86a4.08,4.08,0,0,1-4.07,4.07H152.32a4.08,4.08,0,0,1-4.07-4.07V303.07a4.08,4.08,0,0,1,4.07-4.07h76.86m0-1H152.32a5.07,5.07,0,0,0-5.07,5.07v21.86a5.07,5.07,0,0,0,5.07,5.07h77.86a5.07,5.07,0,0,0,5.07-5.07V304.07a6.09,6.09,0,0,0-6.07-6.07Z"/>
      </g>
      <g>
        <path class="cls-2" d="M152.32,371.5a4.58,4.58,0,0,1-4.57-4.57V345.07a4.58,4.58,0,0,1,4.57-4.57h76.86a5.58,5.58,0,0,1,5.57,5.57v20.86a4.58,4.58,0,0,1-4.57,4.57Z"/>
        <path class="cls-2" d="M229.18,341a5.07,5.07,0,0,1,5.07,5.07v20.86a4.08,4.08,0,0,1-4.07,4.07H152.32a4.08,4.08,0,0,1-4.07-4.07V345.07a4.08,4.08,0,0,1,4.07-4.07h76.86m0-1H152.32a5.07,5.07,0,0,0-5.07,5.07v21.86a5.07,5.07,0,0,0,5.07,5.07h77.86a5.07,5.07,0,0,0,5.07-5.07V346.07a6.09,6.09,0,0,0-6.07-6.07Z"/>
      </g>
      <g>
        <path class="cls-3" d="M35.07,342.5a4.58,4.58,0,0,1-4.57-4.57V284.07a4.58,4.58,0,0,1,4.57-4.57H95.93a5.58,5.58,0,0,1,5.57,5.57v52.86a4.58,4.58,0,0,1-4.57,4.57Z"/>
        <path class="cls-2" d="M95.93,280a5.07,5.07,0,0,1,5.07,5.07v52.86A4.08,4.08,0,0,1,96.93,342H35.07A4.08,4.08,0,0,1,31,337.93V284.07A4.08,4.08,0,0,1,35.07,280H95.93m0-1H35.07A5.07,5.07,0,0,0,30,284.07v53.86A5.07,5.07,0,0,0,35.07,343H96.93a5.07,5.07,0,0,0,5.07-5.07V285.07A6.09,6.09,0,0,0,95.93,279Z"/>
      </g>
      <g>
        <path class="cls-4" d="M154.07,327.5a4.58,4.58,0,0,1-4.57-4.57V301.07a4.58,4.58,0,0,1,4.57-4.57h76.86a5.58,5.58,0,0,1,5.57,5.57v20.86a4.58,4.58,0,0,1-4.57,4.57Z"/>
        <path class="cls-2" d="M230.93,297a5.07,5.07,0,0,1,5.07,5.07v20.86a4.08,4.08,0,0,1-4.07,4.07H154.07a4.08,4.08,0,0,1-4.07-4.07V301.07a4.08,4.08,0,0,1,4.07-4.07h76.86m0-1H154.07a5.07,5.07,0,0,0-5.07,5.07v21.86a5.07,5.07,0,0,0,5.07,5.07h77.86a5.07,5.07,0,0,0,5.07-5.07V302.07a6.09,6.09,0,0,0-6.07-6.07Z"/>
      </g>
      <g>
        <path class="cls-2" d="M151.82,288.5a4.58,4.58,0,0,1-4.57-4.57V262.07a4.58,4.58,0,0,1,4.57-4.57h76.86a5.58,5.58,0,0,1,5.57,5.57v20.86a4.58,4.58,0,0,1-4.57,4.57Z"/>
        <path class="cls-2" d="M228.68,258a5.07,5.07,0,0,1,5.07,5.07v20.86a4.08,4.08,0,0,1-4.07,4.07H151.82a4.08,4.08,0,0,1-4.07-4.07V262.07a4.08,4.08,0,0,1,4.07-4.07h76.86m0-1H151.82a5.07,5.07,0,0,0-5.07,5.07v21.86a5.07,5.07,0,0,0,5.07,5.07h77.86a5.07,5.07,0,0,0,5.07-5.07V263.07a6.09,6.09,0,0,0-6.07-6.07Z"/>
      </g>
      <g>
        <path class="cls-2" d="M406.32,329.5a4.58,4.58,0,0,1-4.57-4.57V303.07a4.58,4.58,0,0,1,4.57-4.57h76.86a5.58,5.58,0,0,1,5.57,5.57v20.86a4.58,4.58,0,0,1-4.57,4.57Z"/>
        <path class="cls-2" d="M483.18,299a5.07,5.07,0,0,1,5.07,5.07v20.86a4.08,4.08,0,0,1-4.07,4.07H406.32a4.08,4.08,0,0,1-4.07-4.07V303.07a4.08,4.08,0,0,1,4.07-4.07h76.86m0-1H406.32a5.07,5.07,0,0,0-5.07,5.07v21.86a5.07,5.07,0,0,0,5.07,5.07h77.86a5.07,5.07,0,0,0,5.07-5.07V304.07a6.09,6.09,0,0,0-6.07-6.07Z"/>
      </g>
      <g>
        <path class="cls-2" d="M406.32,371.5a4.58,4.58,0,0,1-4.57-4.57V345.07a4.58,4.58,0,0,1,4.57-4.57h76.86a5.58,5.58,0,0,1,5.57,5.57v20.86a4.58,4.58,0,0,1-4.57,4.57Z"/>
        <path class="cls-2" d="M483.18,341a5.07,5.07,0,0,1,5.07,5.07v20.86a4.08,4.08,0,0,1-4.07,4.07H406.32a4.08,4.08,0,0,1-4.07-4.07V345.07a4.08,4.08,0,0,1,4.07-4.07h76.86m0-1H406.32a5.07,5.07,0,0,0-5.07,5.07v21.86a5.07,5.07,0,0,0,5.07,5.07h77.86a5.07,5.07,0,0,0,5.07-5.07V346.07a6.09,6.09,0,0,0-6.07-6.07Z"/>
      </g>
      <g>
        <path class="cls-2" d="M405.82,288.5a4.58,4.58,0,0,1-4.57-4.57V262.07a4.58,4.58,0,0,1,4.57-4.57h76.86a5.58,5.58,0,0,1,5.57,5.57v20.86a4.58,4.58,0,0,1-4.57,4.57Z"/>
        <path class="cls-2" d="M482.68,258a5.07,5.07,0,0,1,5.07,5.07v20.86a4.08,4.08,0,0,1-4.07,4.07H405.82a4.08,4.08,0,0,1-4.07-4.07V262.07a4.08,4.08,0,0,1,4.07-4.07h76.86m0-1H405.82a5.07,5.07,0,0,0-5.07,5.07v21.86a5.07,5.07,0,0,0,5.07,5.07h77.86a5.07,5.07,0,0,0,5.07-5.07V263.07a6.09,6.09,0,0,0-6.07-6.07Z"/>
      </g>
      <g>
        <path class="cls-4" d="M154.07,286.5a4.58,4.58,0,0,1-4.57-4.57V260.07a4.58,4.58,0,0,1,4.57-4.57h76.86a5.58,5.58,0,0,1,5.57,5.57v20.86a4.58,4.58,0,0,1-4.57,4.57Z"/>
        <path class="cls-2" d="M230.93,256a5.07,5.07,0,0,1,5.07,5.07v20.86a4.08,4.08,0,0,1-4.07,4.07H154.07a4.08,4.08,0,0,1-4.07-4.07V260.07a4.08,4.08,0,0,1,4.07-4.07h76.86m0-1H154.07a5.07,5.07,0,0,0-5.07,5.07v21.86a5.07,5.07,0,0,0,5.07,5.07h77.86a5.07,5.07,0,0,0,5.07-5.07V261.07a6.09,6.09,0,0,0-6.07-6.07Z"/>
      </g>
      <g>
        <path class="cls-4" d="M154.07,369.5a4.58,4.58,0,0,1-4.57-4.57V343.07a4.58,4.58,0,0,1,4.57-4.57h76.86a5.58,5.58,0,0,1,5.57,5.57v20.86a4.58,4.58,0,0,1-4.57,4.57Z"/>
        <path class="cls-2" d="M230.93,339a5.07,5.07,0,0,1,5.07,5.07v20.86a4.08,4.08,0,0,1-4.07,4.07H154.07a4.08,4.08,0,0,1-4.07-4.07V343.07a4.08,4.08,0,0,1,4.07-4.07h76.86m0-1H154.07a5.07,5.07,0,0,0-5.07,5.07v21.86a5.07,5.07,0,0,0,5.07,5.07h77.86a5.07,5.07,0,0,0,5.07-5.07V344.07a6.09,6.09,0,0,0-6.07-6.07Z"/>
      </g>
      <g>
        <path class="cls-3" d="M289.07,342.5a4.58,4.58,0,0,1-4.57-4.57V284.07a4.58,4.58,0,0,1,4.57-4.57h60.86a5.58,5.58,0,0,1,5.57,5.57v52.86a4.58,4.58,0,0,1-4.57,4.57Z"/>
        <path class="cls-2" d="M349.93,280a5.07,5.07,0,0,1,5.07,5.07v52.86a4.08,4.08,0,0,1-4.07,4.07H289.07a4.08,4.08,0,0,1-4.07-4.07V284.07a4.08,4.08,0,0,1,4.07-4.07h60.86m0-1H289.07a5.07,5.07,0,0,0-5.07,5.07v53.86a5.07,5.07,0,0,0,5.07,5.07h61.86a5.07,5.07,0,0,0,5.07-5.07V285.07a6.09,6.09,0,0,0-6.07-6.07Z"/>
      </g>
      <g>
        <path class="cls-3" d="M543.07,342.5a4.58,4.58,0,0,1-4.57-4.57V284.07a4.58,4.58,0,0,1,4.57-4.57h60.86a5.58,5.58,0,0,1,5.57,5.57v52.86a4.58,4.58,0,0,1-4.57,4.57Z"/>
        <path class="cls-2" d="M603.93,280a5.07,5.07,0,0,1,5.07,5.07v52.86a4.08,4.08,0,0,1-4.07,4.07H543.07a4.08,4.08,0,0,1-4.07-4.07V284.07a4.08,4.08,0,0,1,4.07-4.07h60.86m0-1H543.07a5.07,5.07,0,0,0-5.07,5.07v53.86a5.07,5.07,0,0,0,5.07,5.07h61.86a5.07,5.07,0,0,0,5.07-5.07V285.07a6.09,6.09,0,0,0-6.07-6.07Z"/>
      </g>
      <g>
        <path class="cls-2" d="M139.66,312.71H109.44a.5.5,0,0,1-.5-.5.5.5,0,0,1,.5-.5h30.22a.5.5,0,0,1,.5.5A.51.51,0,0,1,139.66,312.71Z"/>
        <path class="cls-2" d="M129.16,323.21a.51.51,0,0,1-.36-.15.51.51,0,0,1,0-.71L139,312.21,128.8,302.06a.5.5,0,0,1,.71-.71l10.5,10.5a.5.5,0,0,1,0,.71l-10.5,10.5A.49.49,0,0,1,129.16,323.21Z"/>
      </g>
      <g>
        <path class="cls-2" d="M110.42,281.68a.5.5,0,0,1-.47-.33.49.49,0,0,1,.3-.64l28.26-9.95a.5.5,0,1,1,.33.95l-28.26,9.94A.45.45,0,0,1,110.42,281.68Z"/>
        <path class="cls-2" d="M133,285.43a.48.48,0,0,1-.2,0,.51.51,0,0,1-.27-.65L138,271.5,124.79,266a.5.5,0,1,1,.38-.92l13.7,5.73a.5.5,0,0,1,.27.66l-5.73,13.7A.5.5,0,0,1,133,285.43Z"/>
      </g>
      <g>
        <path class="cls-2" d="M138.68,353.7a.51.51,0,0,1-.17,0l-28.26-9.94a.5.5,0,0,1,.33-1l28.26,10a.5.5,0,0,1-.16,1Z"/>
        <path class="cls-2" d="M125,359.43a.5.5,0,0,1-.19-1L138,352.93l-5.54-13.23a.52.52,0,0,1,.27-.66.51.51,0,0,1,.66.27l5.73,13.7a.49.49,0,0,1-.27.65l-13.7,5.73A.43.43,0,0,1,125,359.43Z"/>
      </g>
      <g>
        <path class="cls-2" d="M276.66,312.71H246.44a.5.5,0,0,1-.5-.5.5.5,0,0,1,.5-.5h30.22a.5.5,0,0,1,.5.5A.51.51,0,0,1,276.66,312.71Z"/>
        <path class="cls-2" d="M266.16,323.21a.51.51,0,0,1-.36-.15.51.51,0,0,1,0-.71L276,312.21,265.8,302.06a.5.5,0,0,1,.71-.71l10.5,10.5a.5.5,0,0,1,0,.71l-10.5,10.5A.49.49,0,0,1,266.16,323.21Z"/>
      </g>
      <g>
        <path class="cls-2" d="M275.68,279.7a.51.51,0,0,1-.17,0l-28.26-9.94a.5.5,0,0,1,.33-1l28.26,10a.5.5,0,0,1-.16,1Z"/>
        <path class="cls-2" d="M262,285.43a.5.5,0,0,1-.19-1L275,278.93l-5.54-13.23a.52.52,0,0,1,.27-.66.51.51,0,0,1,.66.27l5.73,13.7a.49.49,0,0,1-.27.65l-13.7,5.73A.43.43,0,0,1,262,285.43Z"/>
      </g>
      <g>
        <path class="cls-2" d="M247.42,355.68a.5.5,0,0,1-.47-.33.49.49,0,0,1,.3-.64l28.26-9.95a.5.5,0,1,1,.33.95l-28.26,9.94A.45.45,0,0,1,247.42,355.68Z"/>
        <path class="cls-2" d="M270,359.43a.48.48,0,0,1-.2,0,.51.51,0,0,1-.27-.65L275,345.5,261.79,340a.5.5,0,1,1,.38-.92l13.7,5.73a.5.5,0,0,1,.27.66l-5.73,13.7A.5.5,0,0,1,270,359.43Z"/>
      </g>
      <g>
        <path class="cls-4" d="M408.07,327.5a4.58,4.58,0,0,1-4.57-4.57V301.07a4.58,4.58,0,0,1,4.57-4.57h76.86a5.58,5.58,0,0,1,5.57,5.57v20.86a4.58,4.58,0,0,1-4.57,4.57Z"/>
        <path class="cls-2" d="M484.93,297a5.07,5.07,0,0,1,5.07,5.07v20.86a4.08,4.08,0,0,1-4.07,4.07H408.07a4.08,4.08,0,0,1-4.07-4.07V301.07a4.08,4.08,0,0,1,4.07-4.07h76.86m0-1H408.07a5.07,5.07,0,0,0-5.07,5.07v21.86a5.07,5.07,0,0,0,5.07,5.07h77.86a5.07,5.07,0,0,0,5.07-5.07V302.07a6.09,6.09,0,0,0-6.07-6.07Z"/>
      </g>
      <g>
        <path class="cls-4" d="M408.07,286.5a4.58,4.58,0,0,1-4.57-4.57V260.07a4.58,4.58,0,0,1,4.57-4.57h76.86a5.58,5.58,0,0,1,5.57,5.57v20.86a4.58,4.58,0,0,1-4.57,4.57Z"/>
        <path class="cls-2" d="M484.93,256a5.07,5.07,0,0,1,5.07,5.07v20.86a4.08,4.08,0,0,1-4.07,4.07H408.07a4.08,4.08,0,0,1-4.07-4.07V260.07a4.08,4.08,0,0,1,4.07-4.07h76.86m0-1H408.07a5.07,5.07,0,0,0-5.07,5.07v21.86a5.07,5.07,0,0,0,5.07,5.07h77.86a5.07,5.07,0,0,0,5.07-5.07V261.07a6.09,6.09,0,0,0-6.07-6.07Z"/>
      </g>
      <g>
        <path class="cls-4" d="M408.07,369.5a4.58,4.58,0,0,1-4.57-4.57V343.07a4.58,4.58,0,0,1,4.57-4.57h76.86a5.58,5.58,0,0,1,5.57,5.57v20.86a4.58,4.58,0,0,1-4.57,4.57Z"/>
        <path class="cls-2" d="M484.93,339a5.07,5.07,0,0,1,5.07,5.07v20.86a4.08,4.08,0,0,1-4.07,4.07H408.07a4.08,4.08,0,0,1-4.07-4.07V343.07a4.08,4.08,0,0,1,4.07-4.07h76.86m0-1H408.07a5.07,5.07,0,0,0-5.07,5.07v21.86a5.07,5.07,0,0,0,5.07,5.07h77.86a5.07,5.07,0,0,0,5.07-5.07V344.07a6.09,6.09,0,0,0-6.07-6.07Z"/>
      </g>
      <g>
        <path class="cls-2" d="M393.66,312.71H363.44a.5.5,0,0,1-.5-.5.5.5,0,0,1,.5-.5h30.22a.5.5,0,0,1,.5.5A.51.51,0,0,1,393.66,312.71Z"/>
        <path class="cls-2" d="M383.16,323.21a.51.51,0,0,1-.36-.15.51.51,0,0,1,0-.71L393,312.21,382.8,302.06a.5.5,0,0,1,.71-.71l10.5,10.5a.5.5,0,0,1,0,.71l-10.5,10.5A.49.49,0,0,1,383.16,323.21Z"/>
      </g>
      <g>
        <path class="cls-2" d="M364.42,281.68a.5.5,0,0,1-.47-.33.49.49,0,0,1,.3-.64l28.26-9.95a.5.5,0,0,1,.33.95l-28.26,9.94A.45.45,0,0,1,364.42,281.68Z"/>
        <path class="cls-2" d="M387,285.43a.48.48,0,0,1-.2,0,.49.49,0,0,1-.26-.65L392,271.5,378.79,266a.5.5,0,1,1,.38-.92l13.7,5.73a.5.5,0,0,1,.27.66l-5.73,13.7A.5.5,0,0,1,387,285.43Z"/>
      </g>
      <g>
        <path class="cls-2" d="M392.68,353.7a.51.51,0,0,1-.17,0l-28.26-9.94a.5.5,0,0,1,.33-1l28.26,10a.5.5,0,0,1,.31.64A.51.51,0,0,1,392.68,353.7Z"/>
        <path class="cls-2" d="M379,359.43a.5.5,0,0,1-.19-1L392,352.93l-5.53-13.23a.5.5,0,1,1,.92-.39l5.73,13.7a.49.49,0,0,1-.27.65l-13.7,5.73A.43.43,0,0,1,379,359.43Z"/>
      </g>
      <g>
        <path class="cls-2" d="M530.66,312.71H500.44a.5.5,0,0,1-.5-.5.5.5,0,0,1,.5-.5h30.22a.5.5,0,0,1,.5.5A.51.51,0,0,1,530.66,312.71Z"/>
        <path class="cls-2" d="M520.16,323.21a.51.51,0,0,1-.36-.15.51.51,0,0,1,0-.71L530,312.21,519.8,302.06a.5.5,0,0,1,.71-.71l10.5,10.5a.5.5,0,0,1,0,.71l-10.5,10.5A.49.49,0,0,1,520.16,323.21Z"/>
      </g>
      <g>
        <path class="cls-2" d="M529.68,279.7a.51.51,0,0,1-.17,0l-28.26-9.94a.5.5,0,0,1,.33-1l28.26,10a.5.5,0,0,1,.31.64A.51.51,0,0,1,529.68,279.7Z"/>
        <path class="cls-2" d="M516,285.43a.5.5,0,0,1-.19-1L529,278.93l-5.53-13.23a.5.5,0,1,1,.92-.39l5.73,13.7a.49.49,0,0,1-.27.65l-13.7,5.73A.43.43,0,0,1,516,285.43Z"/>
      </g>
      <g>
        <path class="cls-2" d="M501.42,355.68a.5.5,0,0,1-.47-.33.49.49,0,0,1,.3-.64l28.26-9.95a.5.5,0,0,1,.33.95l-28.26,9.94A.45.45,0,0,1,501.42,355.68Z"/>
        <path class="cls-2" d="M524,359.43a.48.48,0,0,1-.2,0,.49.49,0,0,1-.26-.65L529,345.5,515.79,340a.5.5,0,1,1,.38-.92l13.7,5.73a.5.5,0,0,1,.27.66l-5.73,13.7A.5.5,0,0,1,524,359.43Z"/>
      </g>
    </g>
    <g>
      <g>
        <path class="cls-2" d="M195.07,125.5a4.58,4.58,0,0,1-4.57-4.57V99.07a4.58,4.58,0,0,1,4.57-4.57H441.93a5.58,5.58,0,0,1,5.57,5.57v20.86a4.58,4.58,0,0,1-4.57,4.57Z"/>
        <path class="cls-2" d="M441.93,95a5.07,5.07,0,0,1,5.07,5.07v20.86a4.08,4.08,0,0,1-4.07,4.07H195.07a4.08,4.08,0,0,1-4.07-4.07V99.07A4.08,4.08,0,0,1,195.07,95H441.93m0-1H195.07A5.07,5.07,0,0,0,190,99.07v21.86a5.07,5.07,0,0,0,5.07,5.07H442.93a5.07,5.07,0,0,0,5.07-5.07V100.07A6.09,6.09,0,0,0,441.93,94Z"/>
      </g>
      <g>
        <path class="cls-2" d="M195.07,84.5a4.58,4.58,0,0,1-4.57-4.57V58.07a4.58,4.58,0,0,1,4.57-4.57H441.93a5.58,5.58,0,0,1,5.57,5.57V79.93a4.58,4.58,0,0,1-4.57,4.57Z"/>
        <path class="cls-2" d="M441.93,54A5.07,5.07,0,0,1,447,59.07V79.93A4.08,4.08,0,0,1,442.93,84H195.07A4.08,4.08,0,0,1,191,79.93V58.07A4.08,4.08,0,0,1,195.07,54H441.93m0-1H195.07A5.07,5.07,0,0,0,190,58.07V79.93A5.07,5.07,0,0,0,195.07,85H442.93A5.07,5.07,0,0,0,448,79.93V59.07A6.09,6.09,0,0,0,441.93,53Z"/>
      </g>
      <g>
        <path class="cls-4" d="M197.07,82.5a4.58,4.58,0,0,1-4.57-4.57V56.07a4.58,4.58,0,0,1,4.57-4.57H443.93a5.58,5.58,0,0,1,5.57,5.57V77.93a4.58,4.58,0,0,1-4.57,4.57Z"/>
        <path class="cls-2" d="M443.93,52A5.07,5.07,0,0,1,449,57.07V77.93A4.08,4.08,0,0,1,444.93,82H197.07A4.08,4.08,0,0,1,193,77.93V56.07A4.08,4.08,0,0,1,197.07,52H443.93m0-1H197.07A5.07,5.07,0,0,0,192,56.07V77.93A5.07,5.07,0,0,0,197.07,83H444.93A5.07,5.07,0,0,0,450,77.93V57.07A6.09,6.09,0,0,0,443.93,51Z"/>
      </g>
      <g>
        <path class="cls-4" d="M197.07,123.5a4.58,4.58,0,0,1-4.57-4.57V97.07a4.58,4.58,0,0,1,4.57-4.57H443.93a5.58,5.58,0,0,1,5.57,5.57v20.86a4.58,4.58,0,0,1-4.57,4.57Z"/>
        <path class="cls-2" d="M443.93,93A5.07,5.07,0,0,1,449,98.07v20.86a4.08,4.08,0,0,1-4.07,4.07H197.07a4.08,4.08,0,0,1-4.07-4.07V97.07A4.08,4.08,0,0,1,197.07,93H443.93m0-1H197.07A5.07,5.07,0,0,0,192,97.07v21.86a5.07,5.07,0,0,0,5.07,5.07H444.93a5.07,5.07,0,0,0,5.07-5.07V98.07A6.09,6.09,0,0,0,443.93,92Z"/>
      </g>
      <g>
        <path class="cls-2" d="M195.07,166.5a4.58,4.58,0,0,1-4.57-4.57V140.07a4.58,4.58,0,0,1,4.57-4.57H441.93a5.58,5.58,0,0,1,5.57,5.57v20.86a4.58,4.58,0,0,1-4.57,4.57Z"/>
        <path class="cls-2" d="M441.93,136a5.07,5.07,0,0,1,5.07,5.07v20.86a4.08,4.08,0,0,1-4.07,4.07H195.07a4.08,4.08,0,0,1-4.07-4.07V140.07a4.08,4.08,0,0,1,4.07-4.07H441.93m0-1H195.07a5.07,5.07,0,0,0-5.07,5.07v21.86a5.07,5.07,0,0,0,5.07,5.07H442.93a5.07,5.07,0,0,0,5.07-5.07V141.07a6.09,6.09,0,0,0-6.07-6.07Z"/>
      </g>
      <g>
        <path class="cls-4" d="M197.07,164.5a4.58,4.58,0,0,1-4.57-4.57V138.07a4.58,4.58,0,0,1,4.57-4.57H443.93a5.58,5.58,0,0,1,5.57,5.57v20.86a4.58,4.58,0,0,1-4.57,4.57Z"/>
        <path class="cls-2" d="M443.93,134a5.07,5.07,0,0,1,5.07,5.07v20.86a4.08,4.08,0,0,1-4.07,4.07H197.07a4.08,4.08,0,0,1-4.07-4.07V138.07a4.08,4.08,0,0,1,4.07-4.07H443.93m0-1H197.07a5.07,5.07,0,0,0-5.07,5.07v21.86a5.07,5.07,0,0,0,5.07,5.07H444.93a5.07,5.07,0,0,0,5.07-5.07V139.07a6.09,6.09,0,0,0-6.07-6.07Z"/>
      </g>
    </g>
    <g>
      <path class="cls-3" d="M35.07,140.5a4.58,4.58,0,0,1-4.57-4.57V82.07a4.58,4.58,0,0,1,4.57-4.57H95.93a5.58,5.58,0,0,1,5.57,5.57v52.86a4.58,4.58,0,0,1-4.57,4.57Z"/>
      <path class="cls-2" d="M95.93,78A5.07,5.07,0,0,1,101,83.07v52.86A4.08,4.08,0,0,1,96.93,140H35.07A4.08,4.08,0,0,1,31,135.93V82.07A4.08,4.08,0,0,1,35.07,78H95.93m0-1H35.07A5.07,5.07,0,0,0,30,82.07v53.86A5.07,5.07,0,0,0,35.07,141H96.93a5.07,5.07,0,0,0,5.07-5.07V83.07A6.09,6.09,0,0,0,95.93,77Z"/>
    </g>
    <g>
      <path class="cls-3" d="M543.07,140.5a4.58,4.58,0,0,1-4.57-4.57V82.07a4.58,4.58,0,0,1,4.57-4.57h60.86a5.58,5.58,0,0,1,5.57,5.57v52.86a4.58,4.58,0,0,1-4.57,4.57Z"/>
      <path class="cls-2" d="M603.93,78A5.07,5.07,0,0,1,609,83.07v52.86a4.08,4.08,0,0,1-4.07,4.07H543.07a4.08,4.08,0,0,1-4.07-4.07V82.07A4.08,4.08,0,0,1,543.07,78h60.86m0-1H543.07A5.07,5.07,0,0,0,538,82.07v53.86a5.07,5.07,0,0,0,5.07,5.07h61.86a5.07,5.07,0,0,0,5.07-5.07V83.07A6.09,6.09,0,0,0,603.93,77Z"/>
    </g>
    <g>
      <g>
        <path class="cls-2" d="M175.66,110.71H117.44a.5.5,0,0,1-.5-.5.5.5,0,0,1,.5-.5h58.22a.5.5,0,0,1,.5.5A.51.51,0,0,1,175.66,110.71Z"/>
        <path class="cls-2" d="M165.16,121.21a.51.51,0,0,1-.36-.15.51.51,0,0,1,0-.71L175,110.21,164.8,100.06a.5.5,0,0,1,.71-.71l10.5,10.5a.5.5,0,0,1,0,.71l-10.5,10.5A.49.49,0,0,1,165.16,121.21Z"/>
      </g>
      <g>
        <path class="cls-2" d="M118.42,79.68a.5.5,0,0,1-.09-1l56.26-10a.51.51,0,0,1,.58.41.5.5,0,0,1-.4.58L118.5,79.67Z"/>
        <path class="cls-2" d="M166.77,82.06a.45.45,0,0,1-.27-.08.49.49,0,0,1-.14-.69l7.91-12-12-7.92a.5.5,0,1,1,.55-.83l12.39,8.19a.5.5,0,0,1,.14.69l-8.19,12.39A.51.51,0,0,1,166.77,82.06Z"/>
      </g>
      <g>
        <path class="cls-2" d="M174.68,151.7h-.09l-56.26-9.94a.5.5,0,0,1-.4-.58.49.49,0,0,1,.57-.41l56.27,10a.5.5,0,0,1-.09,1Z"/>
        <path class="cls-2" d="M162.93,160.21a.49.49,0,0,1-.41-.21.5.5,0,0,1,.12-.7L174.3,151,166,139.28a.5.5,0,0,1,.81-.58l8.65,12.07a.5.5,0,0,1-.12.7l-12.07,8.65A.52.52,0,0,1,162.93,160.21Z"/>
      </g>
    </g>
    <g>
      <path class="cls-2" d="M522.66,110.71H464.44a.5.5,0,0,1-.5-.5.5.5,0,0,1,.5-.5h58.22a.5.5,0,0,1,.5.5A.51.51,0,0,1,522.66,110.71Z"/>
      <path class="cls-2" d="M512.16,121.21a.51.51,0,0,1-.36-.15.51.51,0,0,1,0-.71L522,110.21,511.8,100.06a.5.5,0,1,1,.71-.71l10.5,10.5a.5.5,0,0,1,0,.71l-10.5,10.5A.49.49,0,0,1,512.16,121.21Z"/>
    </g>
    <g>
      <path class="cls-2" d="M521.68,73.81h-.09l-56.26-10a.5.5,0,0,1-.4-.58.49.49,0,0,1,.57-.4l56.27,9.94a.5.5,0,0,1-.09,1Z"/>
      <path class="cls-2" d="M509.58,82.06a.52.52,0,0,1-.42-.22.5.5,0,0,1,.14-.69l12-7.92-7.91-12a.5.5,0,1,1,.83-.55l8.19,12.39a.5.5,0,0,1-.14.69L509.85,82A.45.45,0,0,1,509.58,82.06Z"/>
    </g>
    <g>
      <path class="cls-2" d="M465.42,158a.49.49,0,0,1-.49-.41.49.49,0,0,1,.4-.58l56.26-10a.5.5,0,0,1,.18,1l-56.27,9.94Z"/>
      <path class="cls-2" d="M513.35,160.21a.52.52,0,0,1-.29-.09.51.51,0,0,1-.11-.7l8.35-11.67-11.66-8.35a.5.5,0,0,1-.12-.7.51.51,0,0,1,.7-.11l12.07,8.64a.5.5,0,0,1,.12.7L513.76,160A.49.49,0,0,1,513.35,160.21Z"/>
    </g>
    <g>
      <path class="cls-2" d="M45.5,218.54a.5.5,0,0,1-.5-.5.5.5,0,0,1,.5-.5h4a.5.5,0,0,1,.5.5.5.5,0,0,1-.5.5Zm8,0a.5.5,0,0,1-.5-.5.5.5,0,0,1,.5-.5h4a.5.5,0,0,1,.5.5.5.5,0,0,1-.5.5Zm12,0h-4a.5.5,0,0,1-.5-.5.5.5,0,0,1,.5-.5h4a.5.5,0,0,1,.5.5A.5.5,0,0,1,65.5,218.54Zm4,0a.5.5,0,1,1,0-1h4a.5.5,0,0,1,0,1Zm8,0a.5.5,0,1,1,0-1h4a.5.5,0,0,1,0,1Zm12,0h-4a.5.5,0,0,1-.5-.5.5.5,0,0,1,.5-.5h4a.5.5,0,0,1,.5.5A.5.5,0,0,1,89.5,218.54Zm4,0a.5.5,0,0,1-.5-.5.5.5,0,0,1,.5-.5h4a.5.5,0,0,1,.5.5.5.5,0,0,1-.5.5Zm12,0h-4a.5.5,0,0,1-.5-.5.5.5,0,0,1,.5-.5h4a.5.5,0,0,1,.5.5A.5.5,0,0,1,105.5,218.54Zm4,0a.5.5,0,0,1-.5-.5.5.5,0,0,1,.5-.5h4a.5.5,0,0,1,.5.5.5.5,0,0,1-.5.5Zm8,0a.5.5,0,0,1-.5-.5.5.5,0,0,1,.5-.5h4a.5.5,0,0,1,.5.5.5.5,0,0,1-.5.5Zm12,0h-4a.5.5,0,1,1,0-1h4a.5.5,0,0,1,0,1Zm4,0a.5.5,0,0,1,0-1h4a.5.5,0,0,1,0,1Zm8,0a.5.5,0,0,1,0-1h4a.5.5,0,0,1,.5.5.5.5,0,0,1-.5.5Zm12,0h-4a.5.5,0,0,1-.5-.5.5.5,0,0,1,.5-.5h4a.5.5,0,0,1,.5.5A.5.5,0,0,1,153.5,218.53Zm4,0a.5.5,0,0,1-.5-.5.5.5,0,0,1,.5-.5h4a.5.5,0,0,1,.5.5.5.5,0,0,1-.5.5Zm8,0a.5.5,0,0,1-.5-.5.5.5,0,0,1,.5-.5h4a.5.5,0,0,1,.5.5.5.5,0,0,1-.5.5Zm12,0h-4a.5.5,0,0,1-.5-.5.5.5,0,0,1,.5-.5h4a.5.5,0,0,1,.5.5A.5.5,0,0,1,177.5,218.52Zm4,0a.5.5,0,0,1-.5-.5.5.5,0,0,1,.5-.5h4a.5.5,0,0,1,.5.5.5.5,0,0,1-.5.5Zm8,0a.5.5,0,0,1-.5-.5.5.5,0,0,1,.5-.5h4a.5.5,0,0,1,0,1Zm12,0h-4a.5.5,0,0,1,0-1h4a.5.5,0,0,1,0,1Zm4,0a.5.5,0,0,1-.5-.5.5.5,0,0,1,.5-.5h4a.5.5,0,0,1,.5.5.5.5,0,0,1-.5.5Zm12,0h-4a.5.5,0,0,1-.5-.5.5.5,0,0,1,.5-.5h4a.5.5,0,0,1,.5.5A.5.5,0,0,1,217.5,218.52Zm4,0a.5.5,0,0,1-.5-.5.5.5,0,0,1,.5-.5h4a.5.5,0,0,1,.5.5.5.5,0,0,1-.5.5Zm8,0a.5.5,0,0,1-.5-.5.5.5,0,0,1,.5-.5h4a.5.5,0,0,1,.5.5.5.5,0,0,1-.5.5Zm12,0h-4a.5.5,0,0,1-.5-.5.5.5,0,0,1,.5-.5h4a.5.5,0,0,1,.5.5A.5.5,0,0,1,241.5,218.51Zm4,0a.5.5,0,0,1-.5-.5.5.5,0,0,1,.5-.5h4a.5.5,0,0,1,0,1Zm8,0a.5.5,0,0,1,0-1h4a.5.5,0,0,1,0,1Zm12,0h-4a.5.5,0,0,1,0-1h4a.5.5,0,0,1,0,1Zm4,0a.5.5,0,0,1-.5-.5.5.5,0,0,1,.5-.5h4a.5.5,0,0,1,.5.5.5.5,0,0,1-.5.5Zm8,0a.5.5,0,0,1-.5-.5.5.5,0,0,1,.5-.5h4a.5.5,0,0,1,.5.5.5.5,0,0,1-.5.5Zm12,0h-4a.5.5,0,0,1-.5-.5.5.5,0,0,1,.5-.5h4a.5.5,0,0,1,.5.5A.5.5,0,0,1,289.5,218.5Zm4,0a.5.5,0,0,1-.5-.5.5.5,0,0,1,.5-.5h4a.5.5,0,0,1,.5.5.5.5,0,0,1-.5.5Zm8,0a.5.5,0,0,1-.5-.5.5.5,0,0,1,.5-.5h4a.5.5,0,0,1,.5.5.5.5,0,0,1-.5.5Zm12,0h-4a.5.5,0,0,1,0-1h4a.5.5,0,0,1,0,1Zm4,0a.5.5,0,0,1,0-1h4a.5.5,0,0,1,0,1Zm12,0h-4a.5.5,0,0,1-.5-.5.5.5,0,0,1,.5-.5h4a.5.5,0,0,1,.5.5A.5.5,0,0,1,329.5,218.5Zm4,0a.5.5,0,0,1-.5-.5.5.5,0,0,1,.5-.5h4a.5.5,0,0,1,.5.5.5.5,0,0,1-.5.5Zm8,0a.5.5,0,0,1-.5-.5.5.5,0,0,1,.5-.5h4a.5.5,0,0,1,.5.5.5.5,0,0,1-.5.5Zm12,0h-4a.5.5,0,0,1-.5-.5.5.5,0,0,1,.5-.5h4a.5.5,0,0,1,.5.5A.5.5,0,0,1,353.5,218.49Zm4,0a.5.5,0,0,1-.5-.5.5.5,0,0,1,.5-.5h4a.5.5,0,0,1,.5.5.5.5,0,0,1-.5.5Zm8,0a.5.5,0,0,1-.5-.5.5.5,0,0,1,.5-.5h4a.5.5,0,0,1,0,1Zm12,0h-4a.5.5,0,0,1,0-1h4a.5.5,0,0,1,0,1Zm4,0a.5.5,0,0,1,0-1h4a.5.5,0,0,1,.5.5.5.5,0,0,1-.5.5Zm8,0a.5.5,0,0,1-.5-.5.5.5,0,0,1,.5-.5h4a.5.5,0,0,1,.5.5.5.5,0,0,1-.5.5Zm12,0h-4a.5.5,0,0,1-.5-.5.5.5,0,0,1,.5-.5h4a.5.5,0,0,1,.5.5A.5.5,0,0,1,401.5,218.49Zm4,0a.5.5,0,0,1-.5-.5.5.5,0,0,1,.5-.5h4a.5.5,0,0,1,.5.5.5.5,0,0,1-.5.5Zm8,0a.5.5,0,0,1-.5-.5.5.5,0,0,1,.5-.5h4a.5.5,0,0,1,.5.5.5.5,0,0,1-.5.5Zm12,0h-4a.5.5,0,0,1-.5-.5.5.5,0,0,1,.5-.5h4a.5.5,0,0,1,.5.5A.5.5,0,0,1,425.5,218.48Zm4,0a.5.5,0,0,1-.5-.5.5.5,0,0,1,.5-.5h4a.5.5,0,0,1,0,1Zm12,0h-4a.5.5,0,0,1,0-1h4a.5.5,0,0,1,0,1Zm4,0a.5.5,0,0,1-.5-.5.5.5,0,0,1,.5-.5h4a.5.5,0,0,1,.5.5.5.5,0,0,1-.5.5Zm8,0a.5.5,0,0,1-.5-.5.5.5,0,0,1,.5-.5h4a.5.5,0,0,1,.5.5.5.5,0,0,1-.5.5Zm12,0h-4a.5.5,0,0,1-.5-.5.5.5,0,0,1,.5-.5h4a.5.5,0,0,1,.5.5A.5.5,0,0,1,465.5,218.48Zm4,0a.5.5,0,0,1-.5-.5.5.5,0,0,1,.5-.5h4a.5.5,0,0,1,.5.5.5.5,0,0,1-.5.5Zm8,0a.5.5,0,0,1-.5-.5.5.5,0,0,1,.5-.5h4a.5.5,0,0,1,.5.5.5.5,0,0,1-.5.5Zm12,0h-4a.5.5,0,0,1-.5-.5.5.5,0,0,1,.5-.5h4a.5.5,0,0,1,.5.5A.5.5,0,0,1,489.5,218.47Zm4,0a.5.5,0,0,1,0-1h4a.5.5,0,0,1,0,1Zm8,0a.5.5,0,0,1,0-1h4a.5.5,0,0,1,0,1Zm12,0h-4a.5.5,0,0,1-.5-.5.5.5,0,0,1,.5-.5h4a.5.5,0,0,1,.5.5A.5.5,0,0,1,513.5,218.47Zm4,0a.5.5,0,0,1-.5-.5.5.5,0,0,1,.5-.5h4a.5.5,0,0,1,.5.5.5.5,0,0,1-.5.5Zm8,0a.5.5,0,0,1-.5-.5.5.5,0,0,1,.5-.5h4a.5.5,0,0,1,.5.5.5.5,0,0,1-.5.5Zm12,0h-4a.5.5,0,0,1-.5-.5.5.5,0,0,1,.5-.5h4a.5.5,0,0,1,.5.5A.5.5,0,0,1,537.5,218.46Zm4,0a.5.5,0,0,1-.5-.5.5.5,0,0,1,.5-.5h4a.5.5,0,0,1,.5.5.5.5,0,0,1-.5.5Zm12,0h-4a.5.5,0,0,1,0-1h4a.5.5,0,0,1,0,1Zm4,0a.5.5,0,0,1,0-1h4a.5.5,0,0,1,0,1Zm8,0a.5.5,0,0,1,0-1h4a.5.5,0,0,1,.5.5.5.5,0,0,1-.5.5Zm12,0h-4a.5.5,0,0,1-.5-.5.5.5,0,0,1,.5-.5h4a.5.5,0,0,1,.5.5A.5.5,0,0,1,577.5,218.46Zm4,0a.5.5,0,0,1-.5-.5.5.5,0,0,1,.5-.5h4a.5.5,0,0,1,.5.5.5.5,0,0,1-.5.5Z"/>
      <path class="cls-2" d="M580.26,229a.51.51,0,0,1-.36-.15.5.5,0,0,1,0-.7L590.05,218,579.9,207.85a.5.5,0,0,1,0-.7.5.5,0,0,1,.71,0l10.5,10.5a.5.5,0,0,1,0,.7l-10.5,10.5A.5.5,0,0,1,580.26,229Z"/>
    </g>
  </g>
  <g id="Layer_4" data-name="Layer 4">
    <g>
      <path class="cls-2" d="M557.37,304.13v3.53c0,1.13.2,1.67,1.18,1.67s1.2-.62,1.2-1.76v-3.44h.76v3.37c0,1.7-.45,2.53-2,2.53s-1.94-.65-1.94-2.46v-3.44Z"/>
      <path class="cls-2" d="M562.76,306.27a1.38,1.38,0,0,1,1.27-.72c1,0,1.73.83,1.73,2.24S565,310,564,310a1.37,1.37,0,0,1-1.27-.71v2H562v-5.71h.74Zm1.12,3.15c.73,0,1.11-.6,1.11-1.63s-.38-1.62-1.11-1.62-1.15.49-1.15,1.62S563.26,309.42,563.88,309.42Z"/>
      <path class="cls-2" d="M569.86,304.13h.74v5.8h-.73v-.61a1.36,1.36,0,0,1-1.27.71c-1,0-1.73-.82-1.73-2.24s.74-2.24,1.73-2.24a1.37,1.37,0,0,1,1.27.72Zm-1.12,2c-.73,0-1.11.6-1.11,1.62s.38,1.63,1.11,1.63,1.15-.5,1.15-1.63S569.36,306.17,568.74,306.17Z"/>
      <path class="cls-2" d="M572.23,308.81c0-1,1.09-1.34,2.85-1.53v-.18a.85.85,0,0,0-1-1c-.66,0-1,.33-1,.85h-.76a1.66,1.66,0,0,1,1.79-1.44c1.19,0,1.7.52,1.68,1.72v1c0,.72,0,1.34.05,1.63h-.7v-.64a1.57,1.57,0,0,1-1.51.74A1.26,1.26,0,0,1,572.23,308.81Zm2.9-.95c-1.31.13-2.11.32-2.11.93,0,.41.3.65.82.65s1.29-.31,1.29-1.46Z"/>
      <path class="cls-2" d="M578.22,304.55H579v1.07h1.76v.64H579v2.48c0,.44,0,.55.43.55h1.33v.64h-1.49c-.78,0-1-.19-1-1.08v-2.59H577v-.64h1.22Z"/>
      <path class="cls-2" d="M582.47,307.79a2,2,0,0,1,1.95-2.25c1.26,0,2,.92,1.92,2.46h-3.09c0,.86.48,1.43,1.16,1.43a1,1,0,0,0,1.11-.79h.76a1.77,1.77,0,0,1-1.86,1.39C583.12,310,582.47,309.06,582.47,307.79Zm.78-.4h2.31a1.11,1.11,0,0,0-1.14-1.24C583.73,306.15,583.29,306.56,583.25,307.39Z"/>
      <path class="cls-2" d="M590.53,304.13h.74v5.8h-.73v-.61a1.36,1.36,0,0,1-1.27.71c-1,0-1.73-.82-1.73-2.24s.74-2.24,1.73-2.24a1.37,1.37,0,0,1,1.27.72Zm-1.12,2c-.73,0-1.11.6-1.11,1.62s.38,1.63,1.11,1.63,1.16-.5,1.16-1.63S590,306.17,589.41,306.17Z"/>
      <path class="cls-2" d="M550.85,315.62v.77a1.22,1.22,0,0,1,1.15-.77h.74v.68H552c-.82,0-1.14.54-1.14,1.48v1.51h1.47v.64h-3.42v-.64h1.21v-3h-1.22v-.64Z"/>
      <path class="cls-2" d="M554.05,317.79a2,2,0,0,1,2-2.25c1.25,0,2,.92,1.92,2.46h-3.1c0,.86.48,1.43,1.16,1.43a1,1,0,0,0,1.11-.79h.76A1.75,1.75,0,0,1,556,320C554.69,320,554.05,319.06,554.05,317.79Zm.78-.4h2.3a1.1,1.1,0,0,0-1.13-1.24C555.3,316.15,554.86,316.56,554.83,317.39Z"/>
      <path class="cls-2" d="M560.17,316.27a1.4,1.4,0,0,1,1.28-.72c1,0,1.73.83,1.73,2.24s-.74,2.24-1.73,2.24a1.39,1.39,0,0,1-1.28-.71v2h-.73v-5.71h.73Zm1.12,3.15c.74,0,1.12-.6,1.12-1.63s-.38-1.62-1.12-1.62-1.15.49-1.15,1.62S560.68,319.42,561.29,319.42Z"/>
      <path class="cls-2" d="M566.31,315.55a2.26,2.26,0,1,1-2,2.24A2,2,0,0,1,566.31,315.55Zm0,3.87c.66,0,1.22-.48,1.22-1.63s-.56-1.62-1.22-1.62-1.22.48-1.22,1.62S565.65,319.42,566.31,319.42Z"/>
      <path class="cls-2" d="M572.37,316.8c-.1-.48-.48-.64-1-.64s-.87.17-.87.55.23.49.65.58l.48.09c.74.15,1.54.43,1.54,1.29s-.78,1.36-1.72,1.36a1.62,1.62,0,0,1-1.76-1.39h.78a.9.9,0,0,0,1,.78c.46,0,1-.16,1-.66s-.36-.6-.9-.7L571,318c-.68-.14-1.22-.47-1.22-1.22s.91-1.19,1.63-1.19a1.58,1.58,0,0,1,1.69,1.25Z"/>
      <path class="cls-2" d="M577.09,315.62v3.67h1.22v.64h-3.18v-.64h1.22v-3h-1.22v-.64Zm0-1.49V315h-.74v-.87Z"/>
      <path class="cls-2" d="M580.81,314.55h.73v1.07h1.76v.64h-1.76v2.48c0,.44,0,.55.43.55h1.33v.64h-1.49c-.78,0-1-.19-1-1.08v-2.59h-1.23v-.64h1.23Z"/>
      <path class="cls-2" d="M587,315.55a2.26,2.26,0,1,1-2,2.24A2,2,0,0,1,587,315.55Zm0,3.87c.66,0,1.22-.48,1.22-1.63s-.56-1.62-1.22-1.62-1.21.48-1.21,1.62S586.33,319.42,587,319.42Z"/>
      <path class="cls-2" d="M592.2,315.62v.77a1.21,1.21,0,0,1,1.15-.77h.73v.68h-.72c-.83,0-1.15.54-1.15,1.48v1.51h1.47v.64h-3.42v-.64h1.22v-3h-1.23v-.64Z"/>
      <path class="cls-2" d="M595.35,321.33v-.64h.78c.44,0,.59-.05.81-.67l0-.09-1.6-4.31h.8l1.17,3.32,1.15-3.32h.76l-1.6,4.49c-.3.85-.54,1.22-1.45,1.22Z"/>
    </g>
    <g>
      <path class="cls-2" d="M161.13,310.62A1.69,1.69,0,0,1,163,309a1.8,1.8,0,0,1,1.93,1.63h-.75a1.11,1.11,0,0,0-1.22-.93c-.53,0-1.08.26-1.08.86s.38.76.84.87l.58.12c.93.21,1.75.62,1.75,1.72a1.76,1.76,0,0,1-2,1.73,2,2,0,0,1-2.1-1.91h.75a1.28,1.28,0,0,0,1.37,1.21,1,1,0,0,0,1.17-1c0-.6-.46-.87-1.09-1l-.63-.15A1.64,1.64,0,0,1,161.13,310.62Z"/>
      <path class="cls-2" d="M169.29,310.55c.45,0,.89.21.89,1.35v3h-.74v-2.66c0-.62,0-1.1-.36-1.1s-.48.43-.48,1.32v2.44h-.74v-2.66c0-.62,0-1.1-.36-1.1s-.49.44-.49,1.33v2.43h-.73v-4.31h.7v.46a.87.87,0,0,1,.79-.53.69.69,0,0,1,.67.55A.93.93,0,0,1,169.29,310.55Z"/>
      <path class="cls-2" d="M171.56,313.81c0-1,1.09-1.34,2.85-1.53v-.18a.85.85,0,0,0-1-1,.89.89,0,0,0-1,.85h-.75a1.65,1.65,0,0,1,1.79-1.44c1.19,0,1.7.52,1.68,1.72v1c0,.72,0,1.34.06,1.63h-.7v-.64A1.57,1.57,0,0,1,173,315,1.26,1.26,0,0,1,171.56,313.81Zm2.9-.95c-1.31.13-2.11.32-2.11.93,0,.41.3.65.82.65s1.29-.31,1.29-1.46Z"/>
      <path class="cls-2" d="M179,309.13v5.16h1.22v.64H177v-.64h1.21v-4.54H177v-.62Z"/>
      <path class="cls-2" d="M184.12,309.13v5.16h1.22v.64h-3.17v-.64h1.21v-4.54h-1.21v-.62Z"/>
      <path class="cls-2" d="M195.87,312.06h-.75a1,1,0,0,0-1-.9c-.64,0-1.17.55-1.17,1.63s.53,1.64,1.17,1.64a1.07,1.07,0,0,0,1-.89h.76a1.79,1.79,0,0,1-1.85,1.49c-1.19,0-1.9-.93-1.9-2.24a2,2,0,0,1,2-2.24A1.69,1.69,0,0,1,195.87,312.06Z"/>
      <path class="cls-2" d="M200.91,312.19v2.74h-.74v-2.48c0-.7,0-1.28-.84-1.28s-1,.5-1,1.42v2.34h-.73v-5.8h.73v2.1a1.4,1.4,0,0,1,1.28-.68C200.6,310.55,200.91,311.24,200.91,312.19Z"/>
      <path class="cls-2" d="M202.57,313.81c0-1,1.08-1.34,2.84-1.53v-.18c0-.75-.4-1-1-1a.89.89,0,0,0-1,.85h-.75a1.65,1.65,0,0,1,1.78-1.44c1.2,0,1.71.52,1.69,1.72v1a15.29,15.29,0,0,0,.06,1.63h-.71v-.64A1.58,1.58,0,0,1,204,315,1.26,1.26,0,0,1,202.57,313.81Zm2.9-.95c-1.31.13-2.11.32-2.11.93,0,.41.29.65.81.65s1.3-.31,1.3-1.46Z"/>
      <path class="cls-2" d="M208.63,311.23a1.36,1.36,0,0,1,1.26-.68c1,0,1.35.69,1.35,1.64v2.74h-.73v-2.48c0-.7-.06-1.27-.86-1.27s-1,.49-1,1.41v2.34h-.74v-4.31h.74Z"/>
      <path class="cls-2" d="M215.72,310.62h.73v3.77c0,.88-.11,1.24-.34,1.51a2,2,0,0,1-1.5.57,1.56,1.56,0,0,1-1.73-1.3h.77c.11.4.33.66,1,.66a1.14,1.14,0,0,0,.88-.32c.15-.17.23-.37.23-.95v-.42a1.36,1.36,0,0,1-1.27.71c-1,0-1.74-.72-1.74-2.15s.74-2.15,1.74-2.15a1.38,1.38,0,0,1,1.27.72Zm-1.12.55q-1.11,0-1.11,1.53c0,1,.37,1.55,1.11,1.55s1.15-.42,1.15-1.55S215.21,311.17,214.6,311.17Z"/>
      <path class="cls-2" d="M218,312.79a2,2,0,0,1,2-2.25c1.25,0,2,.92,1.91,2.46h-3.09c0,.86.48,1.43,1.16,1.43a1,1,0,0,0,1.11-.79h.76a1.77,1.77,0,0,1-1.85,1.39C218.62,315,218,314.06,218,312.79Zm.79-.4h2.3a1.1,1.1,0,0,0-1.13-1.24C219.23,311.15,218.79,311.56,218.76,312.39Z"/>
      <path class="cls-2" d="M226,311.8c-.1-.48-.47-.64-1-.64s-.87.17-.87.55.23.49.65.58l.48.09c.74.15,1.54.43,1.54,1.29S226,315,225.09,315a1.62,1.62,0,0,1-1.76-1.39h.77a.9.9,0,0,0,1,.78c.46,0,1-.16,1-.66s-.36-.6-.9-.7l-.54-.1c-.68-.14-1.21-.47-1.21-1.22s.9-1.19,1.62-1.19a1.58,1.58,0,0,1,1.69,1.25Z"/>
    </g>
    <g>
      <path class="cls-2" d="M161.13,269.62A1.69,1.69,0,0,1,163,268a1.8,1.8,0,0,1,1.93,1.63h-.75a1.11,1.11,0,0,0-1.22-.93c-.53,0-1.08.26-1.08.86s.38.76.84.87l.58.12c.93.21,1.75.62,1.75,1.72a1.76,1.76,0,0,1-2,1.73,2,2,0,0,1-2.1-1.91h.75a1.28,1.28,0,0,0,1.37,1.21,1,1,0,0,0,1.17-1c0-.6-.46-.87-1.09-1l-.63-.15A1.64,1.64,0,0,1,161.13,269.62Z"/>
      <path class="cls-2" d="M169.29,269.55c.45,0,.89.21.89,1.35v3h-.74v-2.66c0-.62,0-1.1-.36-1.1s-.48.43-.48,1.32v2.44h-.74v-2.66c0-.62,0-1.1-.36-1.1s-.49.44-.49,1.33v2.43h-.73v-4.31h.7v.46a.87.87,0,0,1,.79-.53.69.69,0,0,1,.67.55A.93.93,0,0,1,169.29,269.55Z"/>
      <path class="cls-2" d="M171.56,272.81c0-1,1.09-1.34,2.85-1.53v-.18a.85.85,0,0,0-1-1,.89.89,0,0,0-1,.85h-.75a1.65,1.65,0,0,1,1.79-1.44c1.19,0,1.7.52,1.68,1.72v1c0,.72,0,1.34.06,1.63h-.7v-.64A1.57,1.57,0,0,1,173,274,1.26,1.26,0,0,1,171.56,272.81Zm2.9-.95c-1.31.13-2.11.32-2.11.93,0,.41.3.65.82.65s1.29-.31,1.29-1.46Z"/>
      <path class="cls-2" d="M179,268.13v5.16h1.22v.64H177v-.64h1.21v-4.54H177v-.62Z"/>
      <path class="cls-2" d="M184.12,268.13v5.16h1.22v.64h-3.17v-.64h1.21v-4.54h-1.21v-.62Z"/>
      <path class="cls-2" d="M195.87,271.06h-.75a1,1,0,0,0-1-.9c-.64,0-1.17.55-1.17,1.63s.53,1.64,1.17,1.64a1.07,1.07,0,0,0,1-.89h.76a1.79,1.79,0,0,1-1.85,1.49c-1.19,0-1.9-.93-1.9-2.24a2,2,0,0,1,2-2.24A1.69,1.69,0,0,1,195.87,271.06Z"/>
      <path class="cls-2" d="M200.91,271.19v2.74h-.74v-2.48c0-.7,0-1.28-.84-1.28s-1,.5-1,1.42v2.34h-.73v-5.8h.73v2.1a1.4,1.4,0,0,1,1.28-.68C200.6,269.55,200.91,270.24,200.91,271.19Z"/>
      <path class="cls-2" d="M202.57,272.81c0-1,1.08-1.34,2.84-1.53v-.18c0-.75-.4-1-1-1a.89.89,0,0,0-1,.85h-.75a1.65,1.65,0,0,1,1.78-1.44c1.2,0,1.71.52,1.69,1.72v1a15.29,15.29,0,0,0,.06,1.63h-.71v-.64A1.58,1.58,0,0,1,204,274,1.26,1.26,0,0,1,202.57,272.81Zm2.9-.95c-1.31.13-2.11.32-2.11.93,0,.41.29.65.81.65s1.3-.31,1.3-1.46Z"/>
      <path class="cls-2" d="M208.63,270.23a1.36,1.36,0,0,1,1.26-.68c1,0,1.35.69,1.35,1.64v2.74h-.73v-2.48c0-.7-.06-1.27-.86-1.27s-1,.49-1,1.41v2.34h-.74v-4.31h.74Z"/>
      <path class="cls-2" d="M215.72,269.62h.73v3.77c0,.88-.11,1.24-.34,1.51a2,2,0,0,1-1.5.57,1.56,1.56,0,0,1-1.73-1.3h.77c.11.4.33.66,1,.66a1.14,1.14,0,0,0,.88-.32c.15-.17.23-.37.23-.95v-.42a1.36,1.36,0,0,1-1.27.71c-1,0-1.74-.72-1.74-2.15s.74-2.15,1.74-2.15a1.38,1.38,0,0,1,1.27.72Zm-1.12.55q-1.11,0-1.11,1.53c0,1,.37,1.55,1.11,1.55s1.15-.42,1.15-1.55S215.21,270.17,214.6,270.17Z"/>
      <path class="cls-2" d="M218,271.79a2,2,0,0,1,2-2.25c1.25,0,2,.92,1.91,2.46h-3.09c0,.86.48,1.43,1.16,1.43a1,1,0,0,0,1.11-.79h.76a1.77,1.77,0,0,1-1.85,1.39C218.62,274,218,273.06,218,271.79Zm.79-.4h2.3a1.1,1.1,0,0,0-1.13-1.24C219.23,270.15,218.79,270.56,218.76,271.39Z"/>
      <path class="cls-2" d="M226,270.8c-.1-.48-.47-.64-1-.64s-.87.17-.87.55.23.49.65.58l.48.09c.74.15,1.54.43,1.54,1.29S226,274,225.09,274a1.62,1.62,0,0,1-1.76-1.39h.77a.9.9,0,0,0,1,.78c.46,0,1-.16,1-.66s-.36-.6-.9-.7l-.54-.1c-.68-.14-1.21-.47-1.21-1.22s.9-1.19,1.62-1.19a1.58,1.58,0,0,1,1.69,1.25Z"/>
    </g>
    <g>
      <path class="cls-2" d="M161.13,352.62A1.69,1.69,0,0,1,163,351a1.8,1.8,0,0,1,1.93,1.63h-.75a1.11,1.11,0,0,0-1.22-.93c-.53,0-1.08.26-1.08.86s.38.76.84.87l.58.12c.93.21,1.75.62,1.75,1.72a1.76,1.76,0,0,1-2,1.73,2,2,0,0,1-2.1-1.91h.75a1.28,1.28,0,0,0,1.37,1.21,1,1,0,0,0,1.17-1c0-.6-.46-.87-1.09-1l-.63-.15A1.64,1.64,0,0,1,161.13,352.62Z"/>
      <path class="cls-2" d="M169.29,352.55c.45,0,.89.21.89,1.35v3h-.74v-2.66c0-.62,0-1.1-.36-1.1s-.48.43-.48,1.32v2.44h-.74v-2.66c0-.62,0-1.1-.36-1.1s-.49.44-.49,1.33v2.43h-.73v-4.31h.7v.46a.87.87,0,0,1,.79-.53.69.69,0,0,1,.67.55A.93.93,0,0,1,169.29,352.55Z"/>
      <path class="cls-2" d="M171.56,355.81c0-1,1.09-1.34,2.85-1.53v-.18a.85.85,0,0,0-1-1,.89.89,0,0,0-1,.85h-.75a1.65,1.65,0,0,1,1.79-1.44c1.19,0,1.7.52,1.68,1.72v1c0,.72,0,1.34.06,1.63h-.7v-.64A1.57,1.57,0,0,1,173,357,1.26,1.26,0,0,1,171.56,355.81Zm2.9-.95c-1.31.13-2.11.32-2.11.93,0,.41.3.65.82.65s1.29-.31,1.29-1.46Z"/>
      <path class="cls-2" d="M179,351.13v5.16h1.22v.64H177v-.64h1.21v-4.54H177v-.62Z"/>
      <path class="cls-2" d="M184.12,351.13v5.16h1.22v.64h-3.17v-.64h1.21v-4.54h-1.21v-.62Z"/>
      <path class="cls-2" d="M195.87,354.06h-.75a1,1,0,0,0-1-.9c-.64,0-1.17.55-1.17,1.63s.53,1.64,1.17,1.64a1.07,1.07,0,0,0,1-.89h.76a1.79,1.79,0,0,1-1.85,1.49c-1.19,0-1.9-.93-1.9-2.24a2,2,0,0,1,2-2.24A1.69,1.69,0,0,1,195.87,354.06Z"/>
      <path class="cls-2" d="M200.91,354.19v2.74h-.74v-2.48c0-.7,0-1.28-.84-1.28s-1,.5-1,1.42v2.34h-.73v-5.8h.73v2.1a1.4,1.4,0,0,1,1.28-.68C200.6,352.55,200.91,353.24,200.91,354.19Z"/>
      <path class="cls-2" d="M202.57,355.81c0-1,1.08-1.34,2.84-1.53v-.18c0-.75-.4-1-1-1a.89.89,0,0,0-1,.85h-.75a1.65,1.65,0,0,1,1.78-1.44c1.2,0,1.71.52,1.69,1.72v1a15.29,15.29,0,0,0,.06,1.63h-.71v-.64A1.58,1.58,0,0,1,204,357,1.26,1.26,0,0,1,202.57,355.81Zm2.9-.95c-1.31.13-2.11.32-2.11.93,0,.41.29.65.81.65s1.3-.31,1.3-1.46Z"/>
      <path class="cls-2" d="M208.63,353.23a1.36,1.36,0,0,1,1.26-.68c1,0,1.35.69,1.35,1.64v2.74h-.73v-2.48c0-.7-.06-1.27-.86-1.27s-1,.49-1,1.41v2.34h-.74v-4.31h.74Z"/>
      <path class="cls-2" d="M215.72,352.62h.73v3.77c0,.88-.11,1.24-.34,1.51a2,2,0,0,1-1.5.57,1.56,1.56,0,0,1-1.73-1.3h.77c.11.4.33.66,1,.66a1.14,1.14,0,0,0,.88-.32c.15-.17.23-.37.23-.95v-.42a1.36,1.36,0,0,1-1.27.71c-1,0-1.74-.72-1.74-2.15s.74-2.15,1.74-2.15a1.38,1.38,0,0,1,1.27.72Zm-1.12.55q-1.11,0-1.11,1.53c0,1,.37,1.55,1.11,1.55s1.15-.42,1.15-1.55S215.21,353.17,214.6,353.17Z"/>
      <path class="cls-2" d="M218,354.79a2,2,0,0,1,2-2.25c1.25,0,2,.92,1.91,2.46h-3.09c0,.86.48,1.43,1.16,1.43a1,1,0,0,0,1.11-.79h.76a1.77,1.77,0,0,1-1.85,1.39C218.62,357,218,356.06,218,354.79Zm.79-.4h2.3a1.1,1.1,0,0,0-1.13-1.24C219.23,353.15,218.79,353.56,218.76,354.39Z"/>
      <path class="cls-2" d="M226,353.8c-.1-.48-.47-.64-1-.64s-.87.17-.87.55.23.49.65.58l.48.09c.74.15,1.54.43,1.54,1.29S226,357,225.09,357a1.62,1.62,0,0,1-1.76-1.39h.77a.9.9,0,0,0,1,.78c.46,0,1-.16,1-.66s-.36-.6-.9-.7l-.54-.1c-.68-.14-1.21-.47-1.21-1.22s.9-1.19,1.62-1.19a1.58,1.58,0,0,1,1.69,1.25Z"/>
    </g>
    <g>
      <path class="cls-2" d="M415.13,310.62A1.69,1.69,0,0,1,417,309a1.8,1.8,0,0,1,1.93,1.63h-.75a1.11,1.11,0,0,0-1.22-.93c-.53,0-1.08.26-1.08.86s.38.76.84.87l.58.12c.93.21,1.75.62,1.75,1.72a1.76,1.76,0,0,1-2,1.73,2,2,0,0,1-2.1-1.91h.75a1.28,1.28,0,0,0,1.37,1.21,1,1,0,0,0,1.17-1c0-.6-.46-.87-1.09-1l-.63-.15A1.64,1.64,0,0,1,415.13,310.62Z"/>
      <path class="cls-2" d="M423.29,310.55c.45,0,.89.21.89,1.35v3h-.73v-2.66c0-.62,0-1.1-.37-1.1s-.48.43-.48,1.32v2.44h-.74v-2.66c0-.62,0-1.1-.36-1.1s-.49.44-.49,1.33v2.43h-.73v-4.31h.7v.46a.87.87,0,0,1,.79-.53.69.69,0,0,1,.67.55A.93.93,0,0,1,423.29,310.55Z"/>
      <path class="cls-2" d="M425.56,313.81c0-1,1.09-1.34,2.85-1.53v-.18a.85.85,0,0,0-1-1,.89.89,0,0,0-1,.85h-.75a1.66,1.66,0,0,1,1.79-1.44c1.19,0,1.7.52,1.68,1.72v1c0,.72,0,1.34.06,1.63h-.7v-.64A1.57,1.57,0,0,1,427,315,1.26,1.26,0,0,1,425.56,313.81Zm2.9-.95c-1.31.13-2.11.32-2.11.93,0,.41.3.65.82.65s1.29-.31,1.29-1.46Z"/>
      <path class="cls-2" d="M433,309.13v5.16h1.22v.64H431v-.64h1.21v-4.54H431v-.62Z"/>
      <path class="cls-2" d="M438.12,309.13v5.16h1.22v.64h-3.17v-.64h1.21v-4.54h-1.21v-.62Z"/>
      <path class="cls-2" d="M449.87,312.06h-.75a1,1,0,0,0-1-.9c-.64,0-1.17.55-1.17,1.63s.53,1.64,1.17,1.64a1.07,1.07,0,0,0,1.05-.89h.76a1.79,1.79,0,0,1-1.85,1.49c-1.19,0-1.9-.93-1.9-2.24a2,2,0,0,1,2-2.24A1.69,1.69,0,0,1,449.87,312.06Z"/>
      <path class="cls-2" d="M454.91,312.19v2.74h-.74v-2.48c0-.7-.05-1.28-.84-1.28s-1,.5-1,1.42v2.34h-.73v-5.8h.73v2.1a1.4,1.4,0,0,1,1.28-.68C454.61,310.55,454.91,311.24,454.91,312.19Z"/>
      <path class="cls-2" d="M456.57,313.81c0-1,1.08-1.34,2.84-1.53v-.18c0-.75-.4-1-1-1a.89.89,0,0,0-1,.85h-.75a1.65,1.65,0,0,1,1.78-1.44c1.2,0,1.71.52,1.69,1.72v1c0,.72,0,1.34.06,1.63h-.7v-.64A1.58,1.58,0,0,1,458,315,1.26,1.26,0,0,1,456.57,313.81Zm2.9-.95c-1.31.13-2.11.32-2.11.93,0,.41.29.65.81.65s1.3-.31,1.3-1.46Z"/>
      <path class="cls-2" d="M462.63,311.23a1.36,1.36,0,0,1,1.26-.68c1,0,1.36.69,1.36,1.64v2.74h-.74v-2.48c0-.7-.06-1.27-.86-1.27s-1,.49-1,1.41v2.34h-.74v-4.31h.74Z"/>
      <path class="cls-2" d="M469.72,310.62h.73v3.77c0,.88-.11,1.24-.34,1.51a2,2,0,0,1-1.5.57,1.56,1.56,0,0,1-1.73-1.3h.77c.11.4.33.66,1,.66a1.14,1.14,0,0,0,.88-.32c.15-.17.23-.37.23-.95v-.42a1.36,1.36,0,0,1-1.27.71c-1,0-1.74-.72-1.74-2.15s.74-2.15,1.74-2.15a1.38,1.38,0,0,1,1.27.72Zm-1.12.55q-1.11,0-1.11,1.53c0,1,.37,1.55,1.11,1.55s1.15-.42,1.15-1.55S469.21,311.17,468.6,311.17Z"/>
      <path class="cls-2" d="M472,312.79a2,2,0,0,1,2-2.25c1.25,0,2,.92,1.91,2.46h-3.09c0,.86.48,1.43,1.16,1.43a1,1,0,0,0,1.11-.79h.76a1.77,1.77,0,0,1-1.85,1.39C472.62,315,472,314.06,472,312.79Zm.79-.4h2.3a1.1,1.1,0,0,0-1.13-1.24C473.23,311.15,472.79,311.56,472.76,312.39Z"/>
      <path class="cls-2" d="M480,311.8c-.1-.48-.47-.64-1-.64s-.87.17-.87.55.23.49.65.58l.48.09c.74.15,1.54.43,1.54,1.29S480,315,479.09,315a1.62,1.62,0,0,1-1.76-1.39h.77a.9.9,0,0,0,1,.78c.46,0,1-.16,1-.66s-.36-.6-.9-.7l-.54-.1c-.68-.14-1.21-.47-1.21-1.22s.9-1.19,1.62-1.19a1.58,1.58,0,0,1,1.69,1.25Z"/>
    </g>
    <g>
      <path class="cls-2" d="M415.13,269.62A1.69,1.69,0,0,1,417,268a1.8,1.8,0,0,1,1.93,1.63h-.75a1.11,1.11,0,0,0-1.22-.93c-.53,0-1.08.26-1.08.86s.38.76.84.87l.58.12c.93.21,1.75.62,1.75,1.72a1.76,1.76,0,0,1-2,1.73,2,2,0,0,1-2.1-1.91h.75a1.28,1.28,0,0,0,1.37,1.21,1,1,0,0,0,1.17-1c0-.6-.46-.87-1.09-1l-.63-.15A1.64,1.64,0,0,1,415.13,269.62Z"/>
      <path class="cls-2" d="M423.29,269.55c.45,0,.89.21.89,1.35v3h-.73v-2.66c0-.62,0-1.1-.37-1.1s-.48.43-.48,1.32v2.44h-.74v-2.66c0-.62,0-1.1-.36-1.1s-.49.44-.49,1.33v2.43h-.73v-4.31h.7v.46a.87.87,0,0,1,.79-.53.69.69,0,0,1,.67.55A.93.93,0,0,1,423.29,269.55Z"/>
      <path class="cls-2" d="M425.56,272.81c0-1,1.09-1.34,2.85-1.53v-.18a.85.85,0,0,0-1-1,.89.89,0,0,0-1,.85h-.75a1.66,1.66,0,0,1,1.79-1.44c1.19,0,1.7.52,1.68,1.72v1c0,.72,0,1.34.06,1.63h-.7v-.64A1.57,1.57,0,0,1,427,274,1.26,1.26,0,0,1,425.56,272.81Zm2.9-.95c-1.31.13-2.11.32-2.11.93,0,.41.3.65.82.65s1.29-.31,1.29-1.46Z"/>
      <path class="cls-2" d="M433,268.13v5.16h1.22v.64H431v-.64h1.21v-4.54H431v-.62Z"/>
      <path class="cls-2" d="M438.12,268.13v5.16h1.22v.64h-3.17v-.64h1.21v-4.54h-1.21v-.62Z"/>
      <path class="cls-2" d="M449.87,271.06h-.75a1,1,0,0,0-1-.9c-.64,0-1.17.55-1.17,1.63s.53,1.64,1.17,1.64a1.07,1.07,0,0,0,1.05-.89h.76a1.79,1.79,0,0,1-1.85,1.49c-1.19,0-1.9-.93-1.9-2.24a2,2,0,0,1,2-2.24A1.69,1.69,0,0,1,449.87,271.06Z"/>
      <path class="cls-2" d="M454.91,271.19v2.74h-.74v-2.48c0-.7-.05-1.28-.84-1.28s-1,.5-1,1.42v2.34h-.73v-5.8h.73v2.1a1.4,1.4,0,0,1,1.28-.68C454.61,269.55,454.91,270.24,454.91,271.19Z"/>
      <path class="cls-2" d="M456.57,272.81c0-1,1.08-1.34,2.84-1.53v-.18c0-.75-.4-1-1-1a.89.89,0,0,0-1,.85h-.75a1.65,1.65,0,0,1,1.78-1.44c1.2,0,1.71.52,1.69,1.72v1c0,.72,0,1.34.06,1.63h-.7v-.64A1.58,1.58,0,0,1,458,274,1.26,1.26,0,0,1,456.57,272.81Zm2.9-.95c-1.31.13-2.11.32-2.11.93,0,.41.29.65.81.65s1.3-.31,1.3-1.46Z"/>
      <path class="cls-2" d="M462.63,270.23a1.36,1.36,0,0,1,1.26-.68c1,0,1.36.69,1.36,1.64v2.74h-.74v-2.48c0-.7-.06-1.27-.86-1.27s-1,.49-1,1.41v2.34h-.74v-4.31h.74Z"/>
      <path class="cls-2" d="M469.72,269.62h.73v3.77c0,.88-.11,1.24-.34,1.51a2,2,0,0,1-1.5.57,1.56,1.56,0,0,1-1.73-1.3h.77c.11.4.33.66,1,.66a1.14,1.14,0,0,0,.88-.32c.15-.17.23-.37.23-.95v-.42a1.36,1.36,0,0,1-1.27.71c-1,0-1.74-.72-1.74-2.15s.74-2.15,1.74-2.15a1.38,1.38,0,0,1,1.27.72Zm-1.12.55q-1.11,0-1.11,1.53c0,1,.37,1.55,1.11,1.55s1.15-.42,1.15-1.55S469.21,270.17,468.6,270.17Z"/>
      <path class="cls-2" d="M472,271.79a2,2,0,0,1,2-2.25c1.25,0,2,.92,1.91,2.46h-3.09c0,.86.48,1.43,1.16,1.43a1,1,0,0,0,1.11-.79h.76a1.77,1.77,0,0,1-1.85,1.39C472.62,274,472,273.06,472,271.79Zm.79-.4h2.3a1.1,1.1,0,0,0-1.13-1.24C473.23,270.15,472.79,270.56,472.76,271.39Z"/>
      <path class="cls-2" d="M480,270.8c-.1-.48-.47-.64-1-.64s-.87.17-.87.55.23.49.65.58l.48.09c.74.15,1.54.43,1.54,1.29S480,274,479.09,274a1.62,1.62,0,0,1-1.76-1.39h.77a.9.9,0,0,0,1,.78c.46,0,1-.16,1-.66s-.36-.6-.9-.7l-.54-.1c-.68-.14-1.21-.47-1.21-1.22s.9-1.19,1.62-1.19a1.58,1.58,0,0,1,1.69,1.25Z"/>
    </g>
    <g>
      <path class="cls-2" d="M415.13,352.62A1.69,1.69,0,0,1,417,351a1.8,1.8,0,0,1,1.93,1.63h-.75a1.11,1.11,0,0,0-1.22-.93c-.53,0-1.08.26-1.08.86s.38.76.84.87l.58.12c.93.21,1.75.62,1.75,1.72a1.76,1.76,0,0,1-2,1.73,2,2,0,0,1-2.1-1.91h.75a1.28,1.28,0,0,0,1.37,1.21,1,1,0,0,0,1.17-1c0-.6-.46-.87-1.09-1l-.63-.15A1.64,1.64,0,0,1,415.13,352.62Z"/>
      <path class="cls-2" d="M423.29,352.55c.45,0,.89.21.89,1.35v3h-.73v-2.66c0-.62,0-1.1-.37-1.1s-.48.43-.48,1.32v2.44h-.74v-2.66c0-.62,0-1.1-.36-1.1s-.49.44-.49,1.33v2.43h-.73v-4.31h.7v.46a.87.87,0,0,1,.79-.53.69.69,0,0,1,.67.55A.93.93,0,0,1,423.29,352.55Z"/>
      <path class="cls-2" d="M425.56,355.81c0-1,1.09-1.34,2.85-1.53v-.18a.85.85,0,0,0-1-1,.89.89,0,0,0-1,.85h-.75a1.66,1.66,0,0,1,1.79-1.44c1.19,0,1.7.52,1.68,1.72v1c0,.72,0,1.34.06,1.63h-.7v-.64A1.57,1.57,0,0,1,427,357,1.26,1.26,0,0,1,425.56,355.81Zm2.9-.95c-1.31.13-2.11.32-2.11.93,0,.41.3.65.82.65s1.29-.31,1.29-1.46Z"/>
      <path class="cls-2" d="M433,351.13v5.16h1.22v.64H431v-.64h1.21v-4.54H431v-.62Z"/>
      <path class="cls-2" d="M438.12,351.13v5.16h1.22v.64h-3.17v-.64h1.21v-4.54h-1.21v-.62Z"/>
      <path class="cls-2" d="M449.87,354.06h-.75a1,1,0,0,0-1-.9c-.64,0-1.17.55-1.17,1.63s.53,1.64,1.17,1.64a1.07,1.07,0,0,0,1.05-.89h.76a1.79,1.79,0,0,1-1.85,1.49c-1.19,0-1.9-.93-1.9-2.24a2,2,0,0,1,2-2.24A1.69,1.69,0,0,1,449.87,354.06Z"/>
      <path class="cls-2" d="M454.91,354.19v2.74h-.74v-2.48c0-.7-.05-1.28-.84-1.28s-1,.5-1,1.42v2.34h-.73v-5.8h.73v2.1a1.4,1.4,0,0,1,1.28-.68C454.61,352.55,454.91,353.24,454.91,354.19Z"/>
      <path class="cls-2" d="M456.57,355.81c0-1,1.08-1.34,2.84-1.53v-.18c0-.75-.4-1-1-1a.89.89,0,0,0-1,.85h-.75a1.65,1.65,0,0,1,1.78-1.44c1.2,0,1.71.52,1.69,1.72v1c0,.72,0,1.34.06,1.63h-.7v-.64A1.58,1.58,0,0,1,458,357,1.26,1.26,0,0,1,456.57,355.81Zm2.9-.95c-1.31.13-2.11.32-2.11.93,0,.41.29.65.81.65s1.3-.31,1.3-1.46Z"/>
      <path class="cls-2" d="M462.63,353.23a1.36,1.36,0,0,1,1.26-.68c1,0,1.36.69,1.36,1.64v2.74h-.74v-2.48c0-.7-.06-1.27-.86-1.27s-1,.49-1,1.41v2.34h-.74v-4.31h.74Z"/>
      <path class="cls-2" d="M469.72,352.62h.73v3.77c0,.88-.11,1.24-.34,1.51a2,2,0,0,1-1.5.57,1.56,1.56,0,0,1-1.73-1.3h.77c.11.4.33.66,1,.66a1.14,1.14,0,0,0,.88-.32c.15-.17.23-.37.23-.95v-.42a1.36,1.36,0,0,1-1.27.71c-1,0-1.74-.72-1.74-2.15s.74-2.15,1.74-2.15a1.38,1.38,0,0,1,1.27.72Zm-1.12.55q-1.11,0-1.11,1.53c0,1,.37,1.55,1.11,1.55s1.15-.42,1.15-1.55S469.21,353.17,468.6,353.17Z"/>
      <path class="cls-2" d="M472,354.79a2,2,0,0,1,2-2.25c1.25,0,2,.92,1.91,2.46h-3.09c0,.86.48,1.43,1.16,1.43a1,1,0,0,0,1.11-.79h.76a1.77,1.77,0,0,1-1.85,1.39C472.62,357,472,356.06,472,354.79Zm.79-.4h2.3a1.1,1.1,0,0,0-1.13-1.24C473.23,353.15,472.79,353.56,472.76,354.39Z"/>
      <path class="cls-2" d="M480,353.8c-.1-.48-.47-.64-1-.64s-.87.17-.87.55.23.49.65.58l.48.09c.74.15,1.54.43,1.54,1.29S480,357,479.09,357a1.62,1.62,0,0,1-1.76-1.39h.77a.9.9,0,0,0,1,.78c.46,0,1-.16,1-.66s-.36-.6-.9-.7l-.54-.1c-.68-.14-1.21-.47-1.21-1.22s.9-1.19,1.62-1.19a1.58,1.58,0,0,1,1.69,1.25Z"/>
    </g>
    <g>
      <path class="cls-2" d="M303.37,304.13v3.53c0,1.13.2,1.67,1.18,1.67s1.2-.62,1.2-1.76v-3.44h.76v3.37c0,1.7-.45,2.53-2,2.53s-1.94-.65-1.94-2.46v-3.44Z"/>
      <path class="cls-2" d="M308.76,306.27a1.38,1.38,0,0,1,1.27-.72c1,0,1.73.83,1.73,2.24S311,310,310,310a1.37,1.37,0,0,1-1.27-.71v2H308v-5.71h.74Zm1.12,3.15c.73,0,1.11-.6,1.11-1.63s-.38-1.62-1.11-1.62-1.15.49-1.15,1.62S309.26,309.42,309.88,309.42Z"/>
      <path class="cls-2" d="M315.86,304.13h.74v5.8h-.73v-.61a1.36,1.36,0,0,1-1.27.71c-1,0-1.74-.82-1.74-2.24s.75-2.24,1.74-2.24a1.37,1.37,0,0,1,1.27.72Zm-1.12,2c-.73,0-1.11.6-1.11,1.62s.38,1.63,1.11,1.63,1.15-.5,1.15-1.63S315.36,306.17,314.74,306.17Z"/>
      <path class="cls-2" d="M318.23,308.81c0-1,1.09-1.34,2.85-1.53v-.18a.85.85,0,0,0-1-1c-.66,0-1,.33-1,.85h-.76a1.66,1.66,0,0,1,1.79-1.44c1.19,0,1.7.52,1.68,1.72v1c0,.72,0,1.34.05,1.63h-.7v-.64a1.57,1.57,0,0,1-1.51.74A1.26,1.26,0,0,1,318.23,308.81Zm2.9-.95c-1.31.13-2.11.32-2.11.93,0,.41.3.65.82.65s1.29-.31,1.29-1.46Z"/>
      <path class="cls-2" d="M324.22,304.55H325v1.07h1.76v.64H325v2.48c0,.44,0,.55.43.55h1.33v.64h-1.49c-.78,0-1-.19-1-1.08v-2.59H323v-.64h1.22Z"/>
      <path class="cls-2" d="M328.47,307.79a2,2,0,0,1,1.95-2.25c1.26,0,2,.92,1.92,2.46h-3.09c0,.86.48,1.43,1.16,1.43a1,1,0,0,0,1.11-.79h.76a1.77,1.77,0,0,1-1.86,1.39C329.12,310,328.47,309.06,328.47,307.79Zm.78-.4h2.31a1.11,1.11,0,0,0-1.14-1.24C329.73,306.15,329.29,306.56,329.25,307.39Z"/>
      <path class="cls-2" d="M336.53,304.13h.74v5.8h-.73v-.61a1.36,1.36,0,0,1-1.27.71c-1,0-1.73-.82-1.73-2.24s.74-2.24,1.73-2.24a1.37,1.37,0,0,1,1.27.72Zm-1.12,2c-.73,0-1.11.6-1.11,1.62s.38,1.63,1.11,1.63,1.16-.5,1.16-1.63S336,306.17,335.41,306.17Z"/>
      <path class="cls-2" d="M296.85,315.62v.77a1.22,1.22,0,0,1,1.15-.77h.74v.68H298c-.82,0-1.14.54-1.14,1.48v1.51h1.47v.64h-3.42v-.64h1.21v-3h-1.22v-.64Z"/>
      <path class="cls-2" d="M300.05,317.79a2,2,0,0,1,1.95-2.25c1.25,0,2,.92,1.92,2.46h-3.1c0,.86.48,1.43,1.16,1.43a1,1,0,0,0,1.11-.79h.76A1.75,1.75,0,0,1,302,320C300.69,320,300.05,319.06,300.05,317.79Zm.78-.4h2.3a1.1,1.1,0,0,0-1.13-1.24C301.3,316.15,300.86,316.56,300.83,317.39Z"/>
      <path class="cls-2" d="M306.17,316.27a1.4,1.4,0,0,1,1.28-.72c1,0,1.73.83,1.73,2.24s-.74,2.24-1.73,2.24a1.39,1.39,0,0,1-1.28-.71v2h-.73v-5.71h.73Zm1.12,3.15c.74,0,1.11-.6,1.11-1.63s-.37-1.62-1.11-1.62-1.15.49-1.15,1.62S306.68,319.42,307.29,319.42Z"/>
      <path class="cls-2" d="M312.31,315.55a2.26,2.26,0,1,1-2,2.24A2,2,0,0,1,312.31,315.55Zm0,3.87c.66,0,1.21-.48,1.21-1.63s-.55-1.62-1.21-1.62-1.22.48-1.22,1.62S311.65,319.42,312.31,319.42Z"/>
      <path class="cls-2" d="M318.37,316.8c-.1-.48-.48-.64-1-.64s-.87.17-.87.55.23.49.65.58l.48.09c.74.15,1.54.43,1.54,1.29s-.78,1.36-1.72,1.36a1.62,1.62,0,0,1-1.76-1.39h.78a.9.9,0,0,0,1,.78c.46,0,1-.16,1-.66s-.36-.6-.9-.7L317,318c-.68-.14-1.22-.47-1.22-1.22s.91-1.19,1.63-1.19a1.58,1.58,0,0,1,1.69,1.25Z"/>
      <path class="cls-2" d="M323.09,315.62v3.67h1.22v.64h-3.18v-.64h1.22v-3h-1.22v-.64Zm0-1.49V315h-.74v-.87Z"/>
      <path class="cls-2" d="M326.81,314.55h.73v1.07h1.76v.64h-1.76v2.48c0,.44,0,.55.43.55h1.33v.64h-1.49c-.78,0-1-.19-1-1.08v-2.59h-1.23v-.64h1.23Z"/>
      <path class="cls-2" d="M333,315.55a2.26,2.26,0,1,1-2,2.24A2,2,0,0,1,333,315.55Zm0,3.87c.66,0,1.22-.48,1.22-1.63s-.56-1.62-1.22-1.62-1.21.48-1.21,1.62S332.33,319.42,333,319.42Z"/>
      <path class="cls-2" d="M338.2,315.62v.77a1.21,1.21,0,0,1,1.15-.77h.73v.68h-.72c-.83,0-1.15.54-1.15,1.48v1.51h1.47v.64h-3.42v-.64h1.22v-3h-1.23v-.64Z"/>
      <path class="cls-2" d="M341.35,321.33v-.64h.78c.44,0,.59-.05.81-.67l0-.09-1.6-4.31h.8l1.17,3.32,1.15-3.32h.76l-1.6,4.49c-.3.85-.54,1.22-1.45,1.22Z"/>
    </g>
    <g>
      <path class="cls-2" d="M297,69.93l-1.86-5v5h-.76v-5.8h1.14l1.85,4.93V64.13h.76v5.8Z"/>
      <path class="cls-2" d="M299.46,67.79a2,2,0,0,1,2-2.25c1.26,0,2,.92,1.92,2.46h-3.09c0,.86.48,1.43,1.16,1.43a1,1,0,0,0,1.11-.79h.76A1.77,1.77,0,0,1,301.41,70C300.11,70,299.46,69.06,299.46,67.79Zm.79-.4h2.3a1.1,1.1,0,0,0-1.14-1.24C300.72,66.15,300.28,66.56,300.25,67.39Z"/>
      <path class="cls-2" d="M306.89,66.49l.64,2.32.44-3.19h.75L308,69.93h-.75l-.7-2.6-.7,2.6h-.75l-.72-4.31h.75l.44,3.19.64-2.32Z"/>
      <path class="cls-2" d="M316.07,65.31c0-.89.22-1.18,1.14-1.18h1.52v.62h-1.5c-.36,0-.42.12-.42.56v.31h1.92v.64h-1.92v3.67h-.74V66.26h-1.14v-.64h1.14Z"/>
      <path class="cls-2" d="M320.13,67.79a2,2,0,0,1,2-2.25c1.25,0,2,.92,1.91,2.46h-3.09c0,.86.48,1.43,1.16,1.43a1,1,0,0,0,1.11-.79h.76A1.77,1.77,0,0,1,322.09,70C320.78,70,320.13,69.06,320.13,67.79Zm.79-.4h2.3a1.1,1.1,0,0,0-1.13-1.24C321.39,66.15,321,66.56,320.92,67.39Z"/>
      <path class="cls-2" d="M325.4,68.81c0-1,1.09-1.34,2.85-1.53V67.1a.85.85,0,0,0-1-1,.89.89,0,0,0-1,.85h-.75a1.66,1.66,0,0,1,1.79-1.44c1.19,0,1.7.52,1.68,1.72v1c0,.72,0,1.34.06,1.63h-.7v-.64a1.58,1.58,0,0,1-1.51.74A1.26,1.26,0,0,1,325.4,68.81Zm2.9-1c-1.31.13-2.11.32-2.11.93,0,.41.3.65.82.65s1.29-.31,1.29-1.46Z"/>
      <path class="cls-2" d="M331.39,64.55h.74v1.07h1.75v.64h-1.75v2.48c0,.44,0,.55.43.55h1.32v.64H332.4c-.79,0-1-.19-1-1.08V66.26h-1.22v-.64h1.22Z"/>
      <path class="cls-2" d="M338.49,69.38a1.34,1.34,0,0,1-1.26.65c-1,0-1.34-.69-1.34-1.64V65.62h.74v2.52c0,.69,0,1.26.84,1.26s1-.49,1-1.41V65.62h.74v4.31h-.74Z"/>
      <path class="cls-2" d="M342.78,65.62v.77a1.22,1.22,0,0,1,1.15-.77h.74v.68h-.73c-.82,0-1.14.54-1.14,1.48v1.51h1.47v.64h-3.42v-.64h1.21v-3h-1.22v-.64Z"/>
      <path class="cls-2" d="M346,67.79a2,2,0,0,1,2-2.25c1.25,0,2,.92,1.91,2.46h-3.09c0,.86.48,1.43,1.16,1.43a1,1,0,0,0,1.11-.79h.76A1.77,1.77,0,0,1,347.93,70C346.62,70,346,69.06,346,67.79Zm.79-.4h2.3a1.1,1.1,0,0,0-1.13-1.24C347.23,66.15,346.79,66.56,346.76,67.39Z"/>
    </g>
    <g>
      <path class="cls-2" d="M297,110.93l-1.86-5v5h-.76v-5.8h1.14l1.85,4.93v-4.93h.76v5.8Z"/>
      <path class="cls-2" d="M299.46,108.79a2,2,0,0,1,2-2.25c1.26,0,2,.92,1.92,2.46h-3.09c0,.86.48,1.43,1.16,1.43a1,1,0,0,0,1.11-.79h.76a1.77,1.77,0,0,1-1.86,1.39C300.11,111,299.46,110.06,299.46,108.79Zm.79-.4h2.3a1.1,1.1,0,0,0-1.14-1.24C300.72,107.15,300.28,107.56,300.25,108.39Z"/>
      <path class="cls-2" d="M306.89,107.49l.64,2.32.44-3.19h.75l-.72,4.31h-.75l-.7-2.6-.7,2.6h-.75l-.72-4.31h.75l.44,3.19.64-2.32Z"/>
      <path class="cls-2" d="M316.07,106.31c0-.89.22-1.18,1.14-1.18h1.52v.62h-1.5c-.36,0-.42.12-.42.56v.31h1.92v.64h-1.92v3.67h-.74v-3.67h-1.14v-.64h1.14Z"/>
      <path class="cls-2" d="M320.13,108.79a2,2,0,0,1,2-2.25c1.25,0,2,.92,1.91,2.46h-3.09c0,.86.48,1.43,1.16,1.43a1,1,0,0,0,1.11-.79h.76a1.77,1.77,0,0,1-1.85,1.39C320.78,111,320.13,110.06,320.13,108.79Zm.79-.4h2.3a1.1,1.1,0,0,0-1.13-1.24C321.39,107.15,321,107.56,320.92,108.39Z"/>
      <path class="cls-2" d="M325.4,109.81c0-1,1.09-1.34,2.85-1.53v-.18a.85.85,0,0,0-1-1,.89.89,0,0,0-1,.85h-.75a1.66,1.66,0,0,1,1.79-1.44c1.19,0,1.7.52,1.68,1.72v1c0,.72,0,1.34.06,1.63h-.7v-.64a1.58,1.58,0,0,1-1.51.74A1.26,1.26,0,0,1,325.4,109.81Zm2.9-1c-1.31.13-2.11.32-2.11.93,0,.41.3.65.82.65s1.29-.31,1.29-1.46Z"/>
      <path class="cls-2" d="M331.39,105.55h.74v1.07h1.75v.64h-1.75v2.48c0,.44,0,.55.43.55h1.32v.64H332.4c-.79,0-1-.19-1-1.08v-2.59h-1.22v-.64h1.22Z"/>
      <path class="cls-2" d="M338.49,110.38a1.34,1.34,0,0,1-1.26.65c-1,0-1.34-.69-1.34-1.64v-2.77h.74v2.52c0,.69,0,1.26.84,1.26s1-.49,1-1.41v-2.37h.74v4.31h-.74Z"/>
      <path class="cls-2" d="M342.78,106.62v.77a1.22,1.22,0,0,1,1.15-.77h.74v.68h-.73c-.82,0-1.14.54-1.14,1.48v1.51h1.47v.64h-3.42v-.64h1.21v-3h-1.22v-.64Z"/>
      <path class="cls-2" d="M346,108.79a2,2,0,0,1,2-2.25c1.25,0,2,.92,1.91,2.46h-3.09c0,.86.48,1.43,1.16,1.43a1,1,0,0,0,1.11-.79h.76a1.77,1.77,0,0,1-1.85,1.39C346.62,111,346,110.06,346,108.79Zm.79-.4h2.3a1.1,1.1,0,0,0-1.13-1.24C347.23,107.15,346.79,107.56,346.76,108.39Z"/>
    </g>
    <g>
      <path class="cls-2" d="M297,151.93l-1.86-5v5h-.76v-5.8h1.14l1.85,4.93v-4.93h.76v5.8Z"/>
      <path class="cls-2" d="M299.46,149.79a2,2,0,0,1,2-2.25c1.26,0,2,.92,1.92,2.46h-3.09c0,.86.48,1.43,1.16,1.43a1,1,0,0,0,1.11-.79h.76a1.77,1.77,0,0,1-1.86,1.39C300.11,152,299.46,151.06,299.46,149.79Zm.79-.4h2.3a1.1,1.1,0,0,0-1.14-1.24C300.72,148.15,300.28,148.56,300.25,149.39Z"/>
      <path class="cls-2" d="M306.89,148.49l.64,2.32.44-3.19h.75l-.72,4.31h-.75l-.7-2.6-.7,2.6h-.75l-.72-4.31h.75l.44,3.19.64-2.32Z"/>
      <path class="cls-2" d="M316.07,147.31c0-.89.22-1.18,1.14-1.18h1.52v.62h-1.5c-.36,0-.42.12-.42.56v.31h1.92v.64h-1.92v3.67h-.74v-3.67h-1.14v-.64h1.14Z"/>
      <path class="cls-2" d="M320.13,149.79a2,2,0,0,1,2-2.25c1.25,0,2,.92,1.91,2.46h-3.09c0,.86.48,1.43,1.16,1.43a1,1,0,0,0,1.11-.79h.76a1.77,1.77,0,0,1-1.85,1.39C320.78,152,320.13,151.06,320.13,149.79Zm.79-.4h2.3a1.1,1.1,0,0,0-1.13-1.24C321.39,148.15,321,148.56,320.92,149.39Z"/>
      <path class="cls-2" d="M325.4,150.81c0-1,1.09-1.34,2.85-1.53v-.18a.85.85,0,0,0-1-1,.89.89,0,0,0-1,.85h-.75a1.66,1.66,0,0,1,1.79-1.44c1.19,0,1.7.52,1.68,1.72v1c0,.72,0,1.34.06,1.63h-.7v-.64a1.58,1.58,0,0,1-1.51.74A1.26,1.26,0,0,1,325.4,150.81Zm2.9-.95c-1.31.13-2.11.32-2.11.93,0,.41.3.65.82.65s1.29-.31,1.29-1.46Z"/>
      <path class="cls-2" d="M331.39,146.55h.74v1.07h1.75v.64h-1.75v2.48c0,.44,0,.55.43.55h1.32v.64H332.4c-.79,0-1-.19-1-1.08v-2.59h-1.22v-.64h1.22Z"/>
      <path class="cls-2" d="M338.49,151.38a1.34,1.34,0,0,1-1.26.65c-1,0-1.34-.69-1.34-1.64v-2.77h.74v2.52c0,.69,0,1.26.84,1.26s1-.49,1-1.41v-2.37h.74v4.31h-.74Z"/>
      <path class="cls-2" d="M342.78,147.62v.77a1.22,1.22,0,0,1,1.15-.77h.74v.68h-.73c-.82,0-1.14.54-1.14,1.48v1.51h1.47v.64h-3.42v-.64h1.21v-3h-1.22v-.64Z"/>
      <path class="cls-2" d="M346,149.79a2,2,0,0,1,2-2.25c1.25,0,2,.92,1.91,2.46h-3.09c0,.86.48,1.43,1.16,1.43a1,1,0,0,0,1.11-.79h.76a1.77,1.77,0,0,1-1.85,1.39C346.62,152,346,151.06,346,149.79Zm.79-.4h2.3a1.1,1.1,0,0,0-1.13-1.24C347.23,148.15,346.79,148.56,346.76,149.39Z"/>
    </g>
    <g>
      <path class="cls-2" d="M50.14,105c0,1.75-.72,3-2.17,3s-2.16-1.26-2.16-3,.72-3,2.16-3S50.14,103.27,50.14,105Zm-3.55,0c0,1.47.43,2.31,1.38,2.31s1.39-.84,1.39-2.31-.43-2.29-1.39-2.29S46.59,103.56,46.59,105Z"/>
      <path class="cls-2" d="M53.19,103.62v.77a1.21,1.21,0,0,1,1.15-.77h.74v.68h-.73c-.82,0-1.14.54-1.14,1.48v1.51h1.47v.64H51.25v-.64h1.22v-3H51.25v-.64Z"/>
      <path class="cls-2" d="M58.75,103.62v3.67H60v.64H56.8v-.64H58v-3H56.8v-.64Zm0-1.49V103H58v-.87Z"/>
      <path class="cls-2" d="M64.46,103.62h.74v3.77a2.14,2.14,0,0,1-.35,1.51,2,2,0,0,1-1.5.57,1.56,1.56,0,0,1-1.73-1.3h.78c.1.4.33.66,1,.66a1.16,1.16,0,0,0,.88-.32c.14-.17.22-.37.22-1v-.42a1.35,1.35,0,0,1-1.27.71c-1,0-1.74-.72-1.74-2.15s.75-2.15,1.74-2.15a1.37,1.37,0,0,1,1.27.72Zm-1.12.55c-.73,0-1.11.51-1.11,1.53s.38,1.55,1.11,1.55,1.15-.42,1.15-1.55S64,104.17,63.34,104.17Z"/>
      <path class="cls-2" d="M69.09,103.62v3.67h1.22v.64H67.13v-.64h1.22v-3H67.13v-.64Zm0-1.49V103h-.74v-.87Z"/>
      <path class="cls-2" d="M72.88,104.23a1.35,1.35,0,0,1,1.26-.68c1,0,1.35.69,1.35,1.64v2.74h-.73v-2.48c0-.7-.06-1.27-.86-1.27s-1,.49-1,1.41v2.34h-.74v-4.31h.74Z"/>
      <path class="cls-2" d="M77.15,106.81c0-1,1.09-1.34,2.85-1.53v-.18a.85.85,0,0,0-1-1c-.66,0-1,.33-1,.85h-.76A1.66,1.66,0,0,1,79,103.54c1.19,0,1.7.52,1.68,1.72v1c0,.72,0,1.34,0,1.63h-.7v-.64a1.57,1.57,0,0,1-1.51.74A1.26,1.26,0,0,1,77.15,106.81Zm2.9-1c-1.31.13-2.11.32-2.11.93,0,.41.3.65.82.65s1.29-.31,1.29-1.46Z"/>
      <path class="cls-2" d="M84.54,102.13v5.16h1.22v.64H82.59v-.64h1.22v-4.54H82.59v-.62Z"/>
      <path class="cls-2" d="M42.85,113.62v.77a1.22,1.22,0,0,1,1.15-.77h.74v.68H44c-.82,0-1.14.54-1.14,1.48v1.51h1.47v.64H40.92v-.64h1.21v-3H40.91v-.64Z"/>
      <path class="cls-2" d="M46.05,115.79a2,2,0,0,1,2-2.25c1.25,0,2,.92,1.92,2.46h-3.1c0,.86.48,1.43,1.16,1.43a1,1,0,0,0,1.11-.79h.76A1.75,1.75,0,0,1,48,118C46.69,118,46.05,117.06,46.05,115.79Zm.78-.4h2.3A1.1,1.1,0,0,0,48,114.15C47.3,114.15,46.86,114.56,46.83,115.39Z"/>
      <path class="cls-2" d="M52.17,114.27a1.4,1.4,0,0,1,1.28-.72c1,0,1.73.83,1.73,2.24S54.44,118,53.45,118a1.39,1.39,0,0,1-1.28-.71v2h-.73v-5.71h.73Zm1.12,3.15c.74,0,1.11-.6,1.11-1.63s-.37-1.62-1.11-1.62-1.15.49-1.15,1.62S52.68,117.42,53.29,117.42Z"/>
      <path class="cls-2" d="M58.31,113.55a2.26,2.26,0,1,1-2,2.24A2,2,0,0,1,58.31,113.55Zm0,3.87c.66,0,1.21-.48,1.21-1.63s-.55-1.62-1.21-1.62-1.22.48-1.22,1.62S57.65,117.42,58.31,117.42Z"/>
      <path class="cls-2" d="M64.37,114.8c-.1-.48-.48-.64-1-.64s-.87.17-.87.55.23.49.65.58l.48.09c.74.15,1.54.43,1.54,1.29S64.43,118,63.49,118a1.62,1.62,0,0,1-1.76-1.39h.78a.9.9,0,0,0,1,.78c.46,0,1-.16,1-.66s-.36-.6-.9-.7L63,116c-.68-.14-1.22-.47-1.22-1.22s.91-1.19,1.63-1.19a1.58,1.58,0,0,1,1.69,1.25Z"/>
      <path class="cls-2" d="M69.09,113.62v3.67h1.22v.64H67.13v-.64h1.22v-3H67.13v-.64Zm0-1.49V113h-.74v-.87Z"/>
      <path class="cls-2" d="M72.81,112.55h.73v1.07H75.3v.64H73.54v2.48c0,.44,0,.55.43.55H75.3v.64H73.81c-.78,0-1-.19-1-1.08v-2.59H71.58v-.64h1.23Z"/>
      <path class="cls-2" d="M79,113.55a2.26,2.26,0,1,1-2,2.24A2,2,0,0,1,79,113.55Zm0,3.87c.66,0,1.22-.48,1.22-1.63s-.56-1.62-1.22-1.62-1.21.48-1.21,1.62S78.33,117.42,79,117.42Z"/>
      <path class="cls-2" d="M84.2,113.62v.77a1.21,1.21,0,0,1,1.15-.77h.73v.68h-.72c-.83,0-1.15.54-1.15,1.48v1.51h1.47v.64H82.26v-.64h1.22v-3H82.25v-.64Z"/>
      <path class="cls-2" d="M87.35,119.33v-.64h.78c.44,0,.59,0,.81-.67l0-.09-1.6-4.31h.8l1.17,3.32,1.14-3.32h.76l-1.59,4.49c-.3.85-.54,1.22-1.45,1.22Z"/>
    </g>
    <g>
      <path class="cls-2" d="M557.37,102.13v3.53c0,1.13.2,1.67,1.18,1.67s1.2-.62,1.2-1.76v-3.44h.76v3.37c0,1.7-.45,2.53-2,2.53s-1.94-.65-1.94-2.46v-3.44Z"/>
      <path class="cls-2" d="M562.76,104.27a1.38,1.38,0,0,1,1.27-.72c1,0,1.73.83,1.73,2.24S565,108,564,108a1.37,1.37,0,0,1-1.27-.71v2H562v-5.71h.74Zm1.12,3.15c.73,0,1.11-.6,1.11-1.63s-.38-1.62-1.11-1.62-1.15.49-1.15,1.62S563.26,107.42,563.88,107.42Z"/>
      <path class="cls-2" d="M569.86,102.13h.74v5.8h-.73v-.61a1.36,1.36,0,0,1-1.27.71c-1,0-1.73-.82-1.73-2.24s.74-2.24,1.73-2.24a1.37,1.37,0,0,1,1.27.72Zm-1.12,2c-.73,0-1.11.6-1.11,1.62s.38,1.63,1.11,1.63,1.15-.5,1.15-1.63S569.36,104.17,568.74,104.17Z"/>
      <path class="cls-2" d="M572.23,106.81c0-1,1.09-1.34,2.85-1.53v-.18a.85.85,0,0,0-1-1c-.66,0-1,.33-1,.85h-.76a1.66,1.66,0,0,1,1.79-1.44c1.19,0,1.7.52,1.68,1.72v1c0,.72,0,1.34.05,1.63h-.7v-.64a1.57,1.57,0,0,1-1.51.74A1.26,1.26,0,0,1,572.23,106.81Zm2.9-1c-1.31.13-2.11.32-2.11.93,0,.41.3.65.82.65s1.29-.31,1.29-1.46Z"/>
      <path class="cls-2" d="M578.22,102.55H579v1.07h1.76v.64H579v2.48c0,.44,0,.55.43.55h1.33v.64h-1.49c-.78,0-1-.19-1-1.08v-2.59H577v-.64h1.22Z"/>
      <path class="cls-2" d="M582.47,105.79a2,2,0,0,1,1.95-2.25c1.26,0,2,.92,1.92,2.46h-3.09c0,.86.48,1.43,1.16,1.43a1,1,0,0,0,1.11-.79h.76a1.77,1.77,0,0,1-1.86,1.39C583.12,108,582.47,107.06,582.47,105.79Zm.78-.4h2.31a1.11,1.11,0,0,0-1.14-1.24C583.73,104.15,583.29,104.56,583.25,105.39Z"/>
      <path class="cls-2" d="M590.53,102.13h.74v5.8h-.73v-.61a1.36,1.36,0,0,1-1.27.71c-1,0-1.73-.82-1.73-2.24s.74-2.24,1.73-2.24a1.37,1.37,0,0,1,1.27.72Zm-1.12,2c-.73,0-1.11.6-1.11,1.62s.38,1.63,1.11,1.63,1.16-.5,1.16-1.63S590,104.17,589.41,104.17Z"/>
      <path class="cls-2" d="M550.85,113.62v.77a1.22,1.22,0,0,1,1.15-.77h.74v.68H552c-.82,0-1.14.54-1.14,1.48v1.51h1.47v.64h-3.42v-.64h1.21v-3h-1.22v-.64Z"/>
      <path class="cls-2" d="M554.05,115.79a2,2,0,0,1,2-2.25c1.25,0,2,.92,1.92,2.46h-3.1c0,.86.48,1.43,1.16,1.43a1,1,0,0,0,1.11-.79h.76A1.75,1.75,0,0,1,556,118C554.69,118,554.05,117.06,554.05,115.79Zm.78-.4h2.3a1.1,1.1,0,0,0-1.13-1.24C555.3,114.15,554.86,114.56,554.83,115.39Z"/>
      <path class="cls-2" d="M560.17,114.27a1.4,1.4,0,0,1,1.28-.72c1,0,1.73.83,1.73,2.24s-.74,2.24-1.73,2.24a1.39,1.39,0,0,1-1.28-.71v2h-.73v-5.71h.73Zm1.12,3.15c.74,0,1.12-.6,1.12-1.63s-.38-1.62-1.12-1.62-1.15.49-1.15,1.62S560.68,117.42,561.29,117.42Z"/>
      <path class="cls-2" d="M566.31,113.55a2.26,2.26,0,1,1-2,2.24A2,2,0,0,1,566.31,113.55Zm0,3.87c.66,0,1.22-.48,1.22-1.63s-.56-1.62-1.22-1.62-1.22.48-1.22,1.62S565.65,117.42,566.31,117.42Z"/>
      <path class="cls-2" d="M572.37,114.8c-.1-.48-.48-.64-1-.64s-.87.17-.87.55.23.49.65.58l.48.09c.74.15,1.54.43,1.54,1.29s-.78,1.36-1.72,1.36a1.62,1.62,0,0,1-1.76-1.39h.78a.9.9,0,0,0,1,.78c.46,0,1-.16,1-.66s-.36-.6-.9-.7L571,116c-.68-.14-1.22-.47-1.22-1.22s.91-1.19,1.63-1.19a1.58,1.58,0,0,1,1.69,1.25Z"/>
      <path class="cls-2" d="M577.09,113.62v3.67h1.22v.64h-3.18v-.64h1.22v-3h-1.22v-.64Zm0-1.49V113h-.74v-.87Z"/>
      <path class="cls-2" d="M580.81,112.55h.73v1.07h1.76v.64h-1.76v2.48c0,.44,0,.55.43.55h1.33v.64h-1.49c-.78,0-1-.19-1-1.08v-2.59h-1.23v-.64h1.23Z"/>
      <path class="cls-2" d="M587,113.55a2.26,2.26,0,1,1-2,2.24A2,2,0,0,1,587,113.55Zm0,3.87c.66,0,1.22-.48,1.22-1.63s-.56-1.62-1.22-1.62-1.21.48-1.21,1.62S586.33,117.42,587,117.42Z"/>
      <path class="cls-2" d="M592.2,113.62v.77a1.21,1.21,0,0,1,1.15-.77h.73v.68h-.72c-.83,0-1.15.54-1.15,1.48v1.51h1.47v.64h-3.42v-.64h1.22v-3h-1.23v-.64Z"/>
      <path class="cls-2" d="M595.35,119.33v-.64h.78c.44,0,.59,0,.81-.67l0-.09-1.6-4.31h.8l1.17,3.32,1.15-3.32h.76l-1.6,4.49c-.3.85-.54,1.22-1.45,1.22Z"/>
    </g>
    <g>
      <path class="cls-2" d="M50.14,307c0,1.75-.72,3-2.17,3s-2.16-1.26-2.16-3,.72-3,2.16-3S50.14,305.27,50.14,307Zm-3.55,0c0,1.47.43,2.31,1.38,2.31s1.39-.84,1.39-2.31-.43-2.29-1.39-2.29S46.59,305.56,46.59,307Z"/>
      <path class="cls-2" d="M53.19,305.62v.77a1.21,1.21,0,0,1,1.15-.77h.74v.68h-.73c-.82,0-1.14.54-1.14,1.48v1.51h1.47v.64H51.25v-.64h1.22v-3H51.25v-.64Z"/>
      <path class="cls-2" d="M58.75,305.62v3.67H60v.64H56.8v-.64H58v-3H56.8v-.64Zm0-1.49V305H58v-.87Z"/>
      <path class="cls-2" d="M64.46,305.62h.74v3.77a2.14,2.14,0,0,1-.35,1.51,2,2,0,0,1-1.5.57,1.56,1.56,0,0,1-1.73-1.3h.78c.1.4.33.66,1,.66a1.16,1.16,0,0,0,.88-.32c.14-.17.22-.37.22-.95v-.42a1.35,1.35,0,0,1-1.27.71c-1,0-1.74-.72-1.74-2.15s.75-2.15,1.74-2.15a1.37,1.37,0,0,1,1.27.72Zm-1.12.55c-.73,0-1.11.51-1.11,1.53s.38,1.55,1.11,1.55,1.15-.42,1.15-1.55S64,306.17,63.34,306.17Z"/>
      <path class="cls-2" d="M69.09,305.62v3.67h1.22v.64H67.13v-.64h1.22v-3H67.13v-.64Zm0-1.49V305h-.74v-.87Z"/>
      <path class="cls-2" d="M72.88,306.23a1.35,1.35,0,0,1,1.26-.68c1,0,1.35.69,1.35,1.64v2.74h-.73v-2.48c0-.7-.06-1.27-.86-1.27s-1,.49-1,1.41v2.34h-.74v-4.31h.74Z"/>
      <path class="cls-2" d="M77.15,308.81c0-1,1.09-1.34,2.85-1.53v-.18a.85.85,0,0,0-1-1c-.66,0-1,.33-1,.85h-.76A1.66,1.66,0,0,1,79,305.54c1.19,0,1.7.52,1.68,1.72v1c0,.72,0,1.34,0,1.63h-.7v-.64a1.57,1.57,0,0,1-1.51.74A1.26,1.26,0,0,1,77.15,308.81Zm2.9-.95c-1.31.13-2.11.32-2.11.93,0,.41.3.65.82.65s1.29-.31,1.29-1.46Z"/>
      <path class="cls-2" d="M84.54,304.13v5.16h1.22v.64H82.59v-.64h1.22v-4.54H82.59v-.62Z"/>
      <path class="cls-2" d="M42.85,315.62v.77a1.22,1.22,0,0,1,1.15-.77h.74v.68H44c-.82,0-1.14.54-1.14,1.48v1.51h1.47v.64H40.92v-.64h1.21v-3H40.91v-.64Z"/>
      <path class="cls-2" d="M46.05,317.79a2,2,0,0,1,2-2.25c1.25,0,2,.92,1.92,2.46h-3.1c0,.86.48,1.43,1.16,1.43a1,1,0,0,0,1.11-.79h.76A1.75,1.75,0,0,1,48,320C46.69,320,46.05,319.06,46.05,317.79Zm.78-.4h2.3A1.1,1.1,0,0,0,48,316.15C47.3,316.15,46.86,316.56,46.83,317.39Z"/>
      <path class="cls-2" d="M52.17,316.27a1.4,1.4,0,0,1,1.28-.72c1,0,1.73.83,1.73,2.24S54.44,320,53.45,320a1.39,1.39,0,0,1-1.28-.71v2h-.73v-5.71h.73Zm1.12,3.15c.74,0,1.11-.6,1.11-1.63s-.37-1.62-1.11-1.62-1.15.49-1.15,1.62S52.68,319.42,53.29,319.42Z"/>
      <path class="cls-2" d="M58.31,315.55a2.26,2.26,0,1,1-2,2.24A2,2,0,0,1,58.31,315.55Zm0,3.87c.66,0,1.21-.48,1.21-1.63s-.55-1.62-1.21-1.62-1.22.48-1.22,1.62S57.65,319.42,58.31,319.42Z"/>
      <path class="cls-2" d="M64.37,316.8c-.1-.48-.48-.64-1-.64s-.87.17-.87.55.23.49.65.58l.48.09c.74.15,1.54.43,1.54,1.29S64.43,320,63.49,320a1.62,1.62,0,0,1-1.76-1.39h.78a.9.9,0,0,0,1,.78c.46,0,1-.16,1-.66s-.36-.6-.9-.7L63,318c-.68-.14-1.22-.47-1.22-1.22s.91-1.19,1.63-1.19a1.58,1.58,0,0,1,1.69,1.25Z"/>
      <path class="cls-2" d="M69.09,315.62v3.67h1.22v.64H67.13v-.64h1.22v-3H67.13v-.64Zm0-1.49V315h-.74v-.87Z"/>
      <path class="cls-2" d="M72.81,314.55h.73v1.07H75.3v.64H73.54v2.48c0,.44,0,.55.43.55H75.3v.64H73.81c-.78,0-1-.19-1-1.08v-2.59H71.58v-.64h1.23Z"/>
      <path class="cls-2" d="M79,315.55a2.26,2.26,0,1,1-2,2.24A2,2,0,0,1,79,315.55Zm0,3.87c.66,0,1.22-.48,1.22-1.63s-.56-1.62-1.22-1.62-1.21.48-1.21,1.62S78.33,319.42,79,319.42Z"/>
      <path class="cls-2" d="M84.2,315.62v.77a1.21,1.21,0,0,1,1.15-.77h.73v.68h-.72c-.83,0-1.15.54-1.15,1.48v1.51h1.47v.64H82.26v-.64h1.22v-3H82.25v-.64Z"/>
      <path class="cls-2" d="M87.35,321.33v-.64h.78c.44,0,.59-.05.81-.67l0-.09-1.6-4.31h.8l1.17,3.32,1.14-3.32h.76l-1.59,4.49c-.3.85-.54,1.22-1.45,1.22Z"/>
    </g>
    <g>
      <path class="cls-2" d="M308.27,200.93h-2.54v-1.56h6.76v1.56H310v7.54h-1.69Z"/>
      <path class="cls-2" d="M313.78,200.77a1,1,0,0,1-.3-.74,1,1,0,0,1,.3-.74,1,1,0,0,1,.74-.3,1,1,0,0,1,1,1,1,1,0,0,1-.3.74,1,1,0,0,1-.74.3A1,1,0,0,1,313.78,200.77Zm-.07,1.14h1.62v6.56h-1.62Z"/>
      <path class="cls-2" d="M318.71,201.91V203a3,3,0,0,1,.82-.87,1.93,1.93,0,0,1,1.06-.29,1.91,1.91,0,0,1,1.13.34,1.76,1.76,0,0,1,.7,1,2.93,2.93,0,0,1,.88-1,2,2,0,0,1,1.13-.36,1.94,1.94,0,0,1,1.43.53,2.07,2.07,0,0,1,.52,1.48v4.65h-1.62V204.1c0-.61-.26-.91-.8-.91a1.15,1.15,0,0,0-1,.7,4.12,4.12,0,0,0-.4,2v2.55h-1.61V204.1c0-.61-.27-.91-.81-.91a1.17,1.17,0,0,0-1,.73,4.67,4.67,0,0,0-.39,2.14v2.41h-1.62v-6.56Z"/>
      <path class="cls-2" d="M334,205.71h-4.52a1.8,1.8,0,0,0,.51,1.1,1.48,1.48,0,0,0,1.05.38,1.6,1.6,0,0,0,.92-.25,2.31,2.31,0,0,0,.67-.76l1.3.48a3,3,0,0,1-3,1.91,2.89,2.89,0,0,1-2.82-1.78,4,4,0,0,1-.33-1.6,4.11,4.11,0,0,1,.33-1.61,2.9,2.9,0,0,1,2.82-1.77,2.89,2.89,0,0,1,1.72.49,3,3,0,0,1,1,1.22,3.75,3.75,0,0,1,.32,1.53Zm-1.65-1.27a1.76,1.76,0,0,0-.46-.9,1.23,1.23,0,0,0-.94-.35,1.31,1.31,0,0,0-.9.32,1.7,1.7,0,0,0-.53.93Z"/>
    </g>
  </g>
</svg>
